<?xml version="1.0" encoding="UTF-8"?>
<svg version="1.1" xmlns="http://www.w3.org/2000/svg" width="1024" height="1024">
<path d="M0 0 C337.92 0 675.84 0 1024 0 C1024 337.92 1024 675.84 1024 1024 C686.08 1024 348.16 1024 0 1024 C0 686.08 0 348.16 0 0 Z " fill="#FDFEFE" transform="translate(0,0)"/>
<path d="M0 0 C1.63140199 -0.00302807 3.26280257 -0.00692081 4.89420068 -0.01159257 C9.3348157 -0.02179717 13.7753493 -0.01971016 18.21597075 -0.01541197 C23.02188833 -0.01293088 27.827787 -0.02197607 32.63369751 -0.02944946 C42.03347455 -0.04216101 51.43322298 -0.04399452 60.83300717 -0.0416492 C68.47978363 -0.03986162 76.12655145 -0.04162509 83.77332687 -0.04587364 C85.40974816 -0.04676643 85.40974816 -0.04676643 87.07922845 -0.04767724 C89.29597709 -0.04888908 91.51272572 -0.05010322 93.72947435 -0.05131962 C114.49219588 -0.06218187 135.25490115 -0.06003912 156.01762359 -0.05393478 C174.97529225 -0.04876887 193.93290948 -0.0600148 212.89056797 -0.07903299 C232.39403313 -0.09844747 251.897474 -0.10666094 271.40094888 -0.10290974 C282.33543807 -0.1010029 293.26988351 -0.10343447 304.20436478 -0.11762428 C313.51500267 -0.12958528 322.8255699 -0.1308905 332.13620885 -0.11883412 C336.87808455 -0.11297791 341.61983132 -0.11175471 346.36169815 -0.12383652 C390.73105022 -0.22923658 390.73105022 -0.22923658 410.99130249 5.94819641 C411.84885132 6.20310852 412.70640015 6.45802063 413.5899353 6.72065735 C433.21864578 12.78086785 451.9659205 22.53007751 467.30380249 36.26069641 C468.78106812 37.54073547 468.78106812 37.54073547 470.28817749 38.84663391 C498.35289188 63.48632039 512.67478851 96.87659416 518.30380249 133.26069641 C518.47371539 134.3250502 518.64362829 135.38940398 518.81869006 136.48601091 C519.27772398 140.05777815 519.43132828 143.44673076 519.43523026 147.0448246 C519.43830921 148.01747336 519.43830921 148.01747336 519.44145036 149.00977159 C519.44708621 151.17364301 519.44566735 153.33745009 519.44424438 155.50132751 C519.44683002 157.07220163 519.44984373 158.6430751 519.45324779 160.21394765 C519.46129843 164.5243954 519.46310629 168.83482647 519.46384525 173.14528084 C519.4656993 177.79727752 519.47324864 182.44926562 519.47998047 187.10125732 C519.49355289 197.27341484 519.49958746 207.44556841 519.50399113 217.61773348 C519.50675669 223.97610209 519.51099474 230.33446918 519.5154953 236.69283676 C519.527689 254.31474271 519.53798652 271.93664744 519.54137039 289.55855751 C519.54158996 290.68612397 519.54180952 291.81369043 519.54203574 292.97542556 C519.54225402 294.1056293 519.5424723 295.23583303 519.54269719 296.40028536 C519.54314065 298.69034425 519.54358721 300.98040315 519.54403687 303.27046204 C519.54425829 304.40640046 519.54447972 305.54233889 519.54470786 306.7126997 C519.54865035 325.09212068 519.56608712 343.47150188 519.58939639 361.85090752 C519.6131624 380.74390943 519.62557471 399.63689144 519.62673831 418.52990854 C519.62765239 429.12805559 519.63333659 439.72615088 519.65155792 450.3242836 C519.66703024 459.35513804 519.67203778 468.38592472 519.66381982 477.4167899 C519.65993774 482.0168465 519.66072183 486.61676695 519.67487717 491.21680641 C519.82149147 541.84078507 510.45749759 587.8192317 474.22567749 625.37007141 C469.88324844 629.73538547 465.25458811 633.60199332 460.30380249 637.26069641 C459.7857605 637.64789856 459.26771851 638.03510071 458.73397827 638.43403625 C441.83128486 650.90159136 422.5785182 659.14210834 402.30380249 664.26069641 C401.56157861 664.45050524 400.81935473 664.64031407 400.05463922 664.83587468 C381.74207352 669.3179056 363.17838345 668.82980591 344.46531379 668.76893604 C339.64796145 668.75770385 334.83065501 668.7698087 330.01330566 668.77877808 C320.60642955 668.79262921 311.19968872 668.78521533 301.79281918 668.77010249 C290.81567545 668.75314554 279.83856451 668.75646472 268.86141171 668.76019657 C249.26462614 668.76606006 229.66790505 668.75196204 210.07113647 668.72724915 C191.09585149 668.70332301 172.12065259 668.6962507 153.14535522 668.70674133 C132.43116333 668.71817298 111.71701115 668.72005365 91.00281972 668.70564324 C88.79057293 668.70411755 86.57832613 668.7025972 84.36607933 668.70108223 C83.27789081 668.70032442 82.1897023 668.6995666 81.06853837 668.69878582 C73.43335926 668.69406111 65.798198 668.69588143 58.16301918 668.70014763 C48.84919001 668.70509468 39.53544191 668.69899926 30.22163121 668.67925333 C25.47793646 668.66944111 20.73436466 668.66420995 15.99066353 668.67214584 C-33.89608569 668.74654415 -75.27972405 658.00910215 -112.69619751 623.26069641 C-113.60305298 622.43505188 -113.60305298 622.43505188 -114.52822876 621.59272766 C-143.21509375 594.38387445 -155.81042106 552.65814734 -156.92565268 514.16187251 C-157.13886691 504.70369808 -157.11982951 495.24295028 -157.10303056 485.78294098 C-157.09823255 481.21499727 -157.1108662 476.64709297 -157.12104797 472.0791626 C-157.13811238 463.16568277 -157.13910207 454.2522738 -157.13383507 445.3387819 C-157.12976953 438.08463682 -157.13126498 430.83051245 -157.13658333 423.57636833 C-157.13733175 422.53817583 -157.13808017 421.49998332 -157.13885127 420.43033044 C-157.14038297 418.3202918 -157.14192132 416.21025316 -157.14346624 414.10021453 C-157.1571461 394.38073074 -157.15178508 374.66128678 -157.14028103 354.94180392 C-157.13034943 336.95810875 -157.14329616 318.97451648 -157.16721522 300.99083716 C-157.19167948 282.4554461 -157.2011964 263.92010281 -157.19456249 245.38469595 C-157.19108701 235.00630189 -157.19319116 224.6279869 -157.21081352 214.24960518 C-157.22562743 205.41693146 -157.22605197 196.58439254 -157.20874261 187.75172121 C-157.20030589 183.25822582 -157.19790029 178.76497025 -157.21339417 174.27148819 C-157.35572744 129.74648273 -150.79223089 87.03701845 -120.69619751 52.26069641 C-120.00010376 51.43182922 -119.30401001 50.60296204 -118.58682251 49.74897766 C-113.17461088 43.48271136 -107.25745787 38.29374132 -100.69619751 33.26069641 C-99.8441272 32.59296204 -98.99205688 31.92522766 -98.11416626 31.23725891 C-81.67952909 18.76960312 -62.82869667 10.15977364 -42.94619751 4.88569641 C-42.04892944 4.64697815 -41.15166138 4.40825989 -40.22720337 4.16230774 C-26.87902011 0.82857757 -13.69143953 -0.0365387 0 0 Z " fill="#1D4F58" transform="translate(331.6961975097656,177.7393035888672)"/>
<path d="M0 0 C1.79744339 1.08790779 1.79744339 1.08790779 3 3 C3.32300949 5.95882988 3.32300949 5.95882988 3.24090576 9.59347534 C3.228709 10.25504761 3.21651224 10.91661987 3.20394588 11.59823978 C3.15654158 13.73333756 3.08264824 15.86599026 3 18 C2.97431474 18.68201807 2.94862947 19.36403615 2.92216587 20.06672144 C2.71612606 25.21563397 2.43426652 30.3595708 2.14550781 35.50439453 C2.05317572 37.20288994 1.96115408 38.90140225 1.86941528 40.59992981 C1.57009803 46.1112358 1.26194573 51.6220322 0.953125 57.1328125 C0.84668712 59.04052379 0.7402904 60.94823738 0.63393402 62.85595322 C0.19134538 70.7848687 -0.25337176 78.71365911 -0.70426559 86.64210701 C-1.34835555 97.9678025 -1.97962286 109.29404462 -2.59301257 120.62144578 C-3.02681998 128.61401786 -3.47475378 136.60572166 -3.93331647 144.59691131 C-4.20635187 149.36114329 -4.473241 154.12553269 -4.72512054 158.89093399 C-4.96178306 163.36212218 -5.2159133 167.83197508 -5.48355484 172.30141258 C-5.5786659 173.94054484 -5.66744754 175.58005851 -5.74942398 177.21990013 C-5.86230601 179.45861906 -5.99794693 181.69484247 -6.13934326 183.93191528 C-6.20939953 185.18358553 -6.2794558 186.43525578 -6.35163498 187.72485542 C-7.09379911 191.47381588 -8.40164835 193.25207125 -11 196 C-16.84514707 195.60064213 -20.20536151 193.12854507 -24.75 189.75 C-25.48879395 189.2149585 -26.22758789 188.67991699 -26.98876953 188.12866211 C-29.33299566 186.42869041 -31.6665861 184.71477204 -34 183 C-39.19848536 179.2150583 -44.40932684 175.44724653 -49.63378906 171.69824219 C-51.27300235 170.52177009 -52.9102419 169.34254488 -54.54589844 168.16113281 C-57.10349632 166.32138979 -59.67467016 164.50231133 -62.25 162.6875 C-63.03616699 162.11781494 -63.82233398 161.54812988 -64.63232422 160.96118164 C-67.89218313 158.68844325 -70.30671767 157.13631486 -74.23828125 156.36328125 C-77.92133581 157.21241547 -79.37646758 158.74388083 -81.9375 161.5 C-82.80761719 162.42425781 -83.67773438 163.34851563 -84.57421875 164.30078125 C-87.04151293 167.04619233 -89.49127991 169.80052008 -91.890625 172.60546875 C-94.85545159 175.97109597 -97.93065534 179.22981231 -101 182.5 C-105.20173045 186.98133512 -109.36647801 191.47609046 -113.37890625 196.12890625 C-119.1314286 202.76856457 -125.10785906 209.21264782 -131.05371094 215.67871094 C-133.57156064 218.42272538 -136.06009128 221.18651674 -138.5 224 C-144.22424462 230.59443858 -150.19489579 236.97356266 -156.12890625 243.37890625 C-160.8542704 248.48153322 -165.5514239 253.59115836 -170.1015625 258.8515625 C-172.64855497 261.73396138 -175.26106824 264.55334931 -177.875 267.375 C-184.11124249 274.10742837 -190.30175066 280.87702 -196.3125 287.8125 C-199.98577239 292.03376641 -203.79631125 296.12428981 -207.60131836 300.22631836 C-210.23729155 303.07313646 -212.84443309 305.93337654 -215.375 308.875 C-218.89267727 312.93385839 -222.53645383 316.87392577 -226.1875 320.8125 C-226.7944873 321.47169434 -227.40147461 322.13088867 -228.02685547 322.81005859 C-228.60967285 323.43605957 -229.19249023 324.06206055 -229.79296875 324.70703125 C-230.3139917 325.2688208 -230.83501465 325.83061035 -231.37182617 326.40942383 C-232.17777222 327.19675903 -232.17777222 327.19675903 -233 328 C-233.50114822 328.52121933 -234.00229645 329.04243866 -234.51863098 329.57945251 C-238.34594267 331.7705325 -241.99527722 331.38249688 -246.33007812 331.31933594 C-247.29362717 331.31719841 -248.25717621 331.31506088 -249.24992371 331.31285858 C-252.51062159 331.30151606 -255.77071124 331.26803545 -259.03125 331.234375 C-261.38187043 331.22063674 -263.73249774 331.20803472 -266.08312988 331.19647217 C-271.94125849 331.16335358 -277.79914326 331.11457529 -283.6570878 331.05866027 C-288.69892638 331.01086341 -293.74078556 330.97028043 -298.78271484 330.93334961 C-316.12418617 330.80499816 -333.46484115 330.63829759 -350.80548096 330.42488861 C-359.90528264 330.31321053 -369.00502458 330.21504185 -378.10514975 330.13371396 C-384.62872363 330.07431128 -391.15202398 329.99997124 -397.6753068 329.91441989 C-401.5294904 329.8642706 -405.3834806 329.82057603 -409.23789978 329.79331207 C-412.81756591 329.76771335 -416.3965251 329.72365744 -419.97580147 329.66523361 C-421.90531497 329.63849323 -423.8350679 329.63124831 -425.76475525 329.62460327 C-426.91508743 329.60227631 -428.06541962 329.57994934 -429.25061035 329.5569458 C-430.24644386 329.54588428 -431.24227737 329.53482277 -432.26828766 329.52342606 C-435.76581275 328.85326188 -437.47242527 327.46508834 -440 325 C-440.78515625 322.2734375 -440.78515625 322.2734375 -440 319 C-437.76928475 315.9167969 -435.13700239 313.29833981 -432.4375 310.625 C-431.01818348 309.18101101 -429.60020613 307.73570446 -428.18359375 306.2890625 C-427.48089355 305.57717773 -426.77819336 304.86529297 -426.05419922 304.13183594 C-423.48320241 301.46367048 -421.05678086 298.68915269 -418.63696289 295.88427734 C-416.15628298 293.02881314 -413.57880982 290.26660795 -411 287.5 C-407.82693836 284.08113094 -404.66735756 280.66154762 -401.625 277.125 C-397.59189795 272.45613802 -393.337526 267.99279499 -389.11816406 263.49316406 C-385.62066617 259.7566487 -382.19196692 255.98007932 -378.84765625 252.10546875 C-376.20781013 249.097272 -373.51498689 246.1394223 -370.8125 243.1875 C-370.30058105 242.62337402 -369.78866211 242.05924805 -369.26123047 241.47802734 C-362.52654567 234.15254204 -362.52654567 234.15254204 -357.21180725 233.62145996 C-355.65700568 233.60419557 -354.10197072 233.60329429 -352.54711914 233.61523438 C-351.69625229 233.6098616 -350.84538544 233.60448883 -349.96873474 233.59895325 C-348.12340121 233.58917842 -346.27802172 233.58623021 -344.43266487 233.58930969 C-341.51131877 233.59378653 -338.59057882 233.57979124 -335.66929626 233.56091309 C-329.46704074 233.52412291 -323.26484859 233.51041969 -317.0625 233.5 C-309.87840707 233.48792356 -302.69460911 233.46639317 -295.51064873 233.41999817 C-292.6339398 233.40642124 -289.75760307 233.41060015 -286.88087463 233.41540527 C-285.11467006 233.40606421 -283.3484696 233.39589528 -281.58227539 233.38476562 C-280.38436874 233.39398796 -280.38436874 233.39398796 -279.16226196 233.40339661 C-271.98273368 233.32397888 -268.49602924 230.78024642 -263.625 225.8125 C-260.316282 222.42784421 -257.15864644 218.95482377 -254.078125 215.36328125 C-251.28155212 212.1829681 -248.39029826 209.09503281 -245.5 206 C-240.45695885 200.59837552 -240.45695885 200.59837552 -235.5625 195.0625 C-232.15194976 191.10489408 -228.57308664 187.31015031 -225 183.5 C-220.8638284 179.08912093 -216.77365273 174.66131378 -212.828125 170.078125 C-209.79704534 166.63253872 -206.66173548 163.2831191 -203.54248047 159.91748047 C-200.50214317 156.63444709 -197.48564451 153.33306497 -194.5 150 C-190.99645613 146.08877103 -187.44415551 142.22616286 -183.875 138.375 C-180.70532707 134.95364088 -177.5515448 131.5278835 -174.5 128 C-171.44839342 124.47204507 -168.29327033 121.04773604 -165.125 117.625 C-164.35385864 116.78654541 -164.35385864 116.78654541 -163.56713867 115.93115234 C-161.16132549 113.31773862 -158.74006994 110.73302476 -156.26171875 108.1875 C-155.04935547 106.9190625 -155.04935547 106.9190625 -153.8125 105.625 C-153.09707031 104.89539063 -152.38164063 104.16578125 -151.64453125 103.4140625 C-149.35193978 100.0486907 -148.80433879 98.09149335 -149 94 C-150.93927913 91.09397805 -153.41096224 88.88780894 -156 86.5625 C-157.39619763 85.24394978 -158.79075177 83.92365695 -160.18359375 82.6015625 C-160.85116699 81.97797852 -161.51874023 81.35439453 -162.20654297 80.71191406 C-164.8603522 78.17876537 -167.2210932 75.44457239 -169.5703125 72.6328125 C-171.09261081 70.89423137 -172.73526916 69.37353196 -174.4375 67.8125 C-177 65 -177 65 -177.625 62.375 C-176.78705875 59.19082325 -175.51532141 58.12233469 -173 56 C-169.89805698 54.63323593 -169.89805698 54.63323593 -166.17469788 53.39300537 C-165.48877121 53.16090874 -164.80284454 52.92881211 -164.09613222 52.68968225 C-161.80220929 51.91676218 -159.50297786 51.161093 -157.20336914 50.40527344 C-155.55540272 49.85397456 -153.90778202 49.30164133 -152.26048279 48.74835205 C-147.78895483 47.24995804 -143.31255421 45.76665212 -138.83499455 44.28639507 C-134.15023843 42.73528301 -129.46962892 41.17175204 -124.78843689 39.60992432 C-116.92688582 36.98913087 -109.06222322 34.37785636 -101.19555664 31.77246094 C-92.0996463 28.75984625 -83.00838961 25.73352258 -73.91959292 22.69951987 C-65.17715918 19.78137589 -56.43191202 16.87175957 -47.68520927 13.96643829 C-43.96237862 12.72976864 -40.24048636 11.49033173 -36.51930428 10.24871063 C-32.1377603 8.78727537 -27.7537822 7.33338862 -23.36780739 5.88530731 C-21.75809512 5.35253933 -20.14922312 4.81722484 -18.54126358 4.27919006 C-16.34716999 3.54551442 -14.15021909 2.82113647 -11.95228577 2.09906006 C-10.72320024 1.69129208 -9.4941147 1.28352409 -8.22778416 0.86339951 C-5.23736541 0.06349284 -3.05753964 -0.43249839 0 0 Z " fill="#FEFEFE" transform="translate(722,304)"/>
<path d="M0 0 C0.96421875 0.53238281 1.9284375 1.06476562 2.921875 1.61328125 C30.27457164 17.91969655 46.02709573 44.07524205 54.203125 74.19921875 C60.4139318 103.82233156 54.48627345 136.52846517 38.09375 161.95703125 C33.54640685 168.40812321 28.40985283 174.26402129 23 180 C22.06414062 181.03253906 22.06414062 181.03253906 21.109375 182.0859375 C3.06924767 201.26304764 -24.95285889 212.45325897 -51.0078125 213.30078125 C-81.9756603 213.59859715 -108.18957595 206.46340715 -132 186 C-132.68320312 185.44957031 -133.36640625 184.89914062 -134.0703125 184.33203125 C-153.70698117 168.12215378 -167.7690099 140.53159143 -170.7109375 115.265625 C-173.40268508 80.35973705 -165.78912649 50.41958056 -142.875 23.50390625 C-106.32890475 -18.18148365 -48.1167969 -26.65032535 0 0 Z " fill="#76D64C" transform="translate(703,543)"/>
<path d="M0 0 C34.32 0 68.64 0 104 0 C104 6.6 104 13.2 104 20 C92.45 20 80.9 20 69 20 C69.99 23.3 70.98 26.6 72 30 C72.495 35.94 72.495 35.94 73 42 C83.23 42 93.46 42 104 42 C104 48.27 104 54.54 104 61 C92.78 61 81.56 61 70 61 C69.67 62.98 69.34 64.96 69 67 C65.97724811 74.35292241 61.95096927 80.90427503 55 85 C50.07801694 87.00189116 45.1151256 88.55170887 40 90 C38.67831816 90.37867158 37.35670073 90.75756807 36.03515625 91.13671875 C35.03355469 91.42160156 34.03195312 91.70648437 33 92 C34.21882468 93.42196212 35.4376526 94.84392147 36.65649414 96.26586914 C37.73385877 97.52282205 38.8111685 98.77982201 39.88842773 100.03686523 C42.61837748 103.22226785 45.34902212 106.40706545 48.08203125 109.58984375 C53.35933483 115.73750602 58.62036879 121.89792064 63.8425293 128.0925293 C66.27117843 130.97000296 68.71485036 133.8331212 71.1796875 136.6796875 C71.71271484 137.29650391 72.24574219 137.91332031 72.79492188 138.54882812 C73.81191024 139.72421023 74.83125806 140.89755712 75.85351562 142.06835938 C79.15658953 145.88938435 82.11371529 149.85424559 85 154 C56.03690851 156.42335539 56.03690851 156.42335539 49.69140625 151.375 C47.05734987 148.54144406 45.09023405 145.33554982 43.19384766 141.97558594 C41.18608874 138.65313499 38.58363145 135.88111325 36 133 C34.99840982 131.83712028 33.99970554 130.67174867 33.00390625 129.50390625 C30.99200998 127.15658474 28.97887242 124.81033583 26.96484375 122.46484375 C23.97285522 118.97972851 20.9850178 115.49108705 18 112 C17.26620117 111.14245117 17.26620117 111.14245117 16.51757812 110.26757812 C14.16047327 107.50979675 11.8143122 104.74435123 9.4921875 101.95703125 C7.95225826 100.12987382 6.37976105 98.32897493 4.7578125 96.57421875 C1.08140915 92.41796355 -0.36568115 89.8729195 -0.17578125 84.2265625 C-0.15040283 83.24510254 -0.12502441 82.26364258 -0.09887695 81.25244141 C-0.06624756 80.50913574 -0.03361816 79.76583008 0 79 C0.8156543 78.90501221 1.63130859 78.81002441 2.47167969 78.7121582 C5.55999669 78.34392907 8.64585195 77.9598442 11.73095703 77.56567383 C13.69809067 77.31900907 15.66740394 77.08992698 17.63671875 76.86132812 C25.73157016 75.81351741 34.09658086 74.6293739 41 70 C42.98 67.36 44.96 64.72 47 62 C23.735 61.505 23.735 61.505 0 61 C0 54.73 0 48.46 0 42 C16.5 42 33 42 50 42 C46.93595826 30.66565363 46.93595826 30.66565363 39 24 C30.37995765 21.01729797 21.79982885 20.48445657 12.75 20.3125 C11.51636719 20.27833984 10.28273438 20.24417969 9.01171875 20.20898438 C6.0081102 20.12749112 3.00407312 20.06204994 0 20 C0 13.4 0 6.8 0 0 Z " fill="#1C4E59" transform="translate(593,579)"/>
<path d="M0 0 C5.08602245 3.78191413 8.79626821 8.25678763 12.7421875 13.19921875 C15.32620996 16.40465838 18.03147793 19.47941992 20.78515625 22.5390625 C22 24 22 24 22 25 C11.77 25 1.54 25 -9 25 C-9 24.34 -9 23.68 -9 23 C-0.42 22.67 8.16 22.34 17 22 C15.30875 19.999375 13.6175 17.99875 11.875 15.9375 C11.32851807 15.28990723 10.78203613 14.64231445 10.21899414 13.97509766 C7.61475152 10.89191919 4.98387751 7.83791549 2.3125 4.8125 C0 2 0 2 0 0 Z " fill="#154459" transform="translate(656,708)"/>
<path d="M0 0 C0.33 0.99 0.66 1.98 1 3 C0.44570313 3.47050781 -0.10859375 3.94101562 -0.6796875 4.42578125 C-1.40414062 5.04839844 -2.12859375 5.67101562 -2.875 6.3125 C-3.59429688 6.92738281 -4.31359375 7.54226563 -5.0546875 8.17578125 C-7.19179331 10.0412324 -7.19179331 10.0412324 -9 13 C-9.66 12.67 -10.32 12.34 -11 12 C-9.54234835 10.37438849 -8.08385614 8.74953066 -6.625 7.125 C-5.81289063 6.22007812 -5.00078125 5.31515625 -4.1640625 4.3828125 C-2.80923795 2.89103817 -1.42494565 1.42494565 0 0 Z " fill="#0E3842" transform="translate(586,525)"/>
<path d="M0 0 C0.33 0.99 0.66 1.98 1 3 C-1.31 4.98 -3.62 6.96 -6 9 C-6.66 8.67 -7.32 8.34 -8 8 C-5.36 5.36 -2.72 2.72 0 0 Z " fill="#0E3843" transform="translate(528,589)"/>
</svg>
