<?xml version="1.0" encoding="UTF-8"?>
<svg version="1.1" xmlns="http://www.w3.org/2000/svg" width="500" height="500">
<path d="M0 0 C1.4961937 -0.00788544 1.4961937 -0.00788544 3.02261353 -0.01593018 C6.31007682 -0.02910258 9.59705351 -0.02040229 12.88452148 -0.01025391 C15.17325432 -0.01227527 17.46198653 -0.01518722 19.75071716 -0.01895142 C24.54302107 -0.0233709 29.33515704 -0.01695502 34.12744141 -0.00292969 C40.27000813 0.01417145 46.41218188 0.00431249 52.55473423 -0.01364708 C57.27905744 -0.02448667 62.00328744 -0.02103789 66.72761345 -0.0132637 C68.99263493 -0.01126269 71.25766487 -0.01371748 73.52267647 -0.02070236 C76.68722083 -0.02832058 79.85112809 -0.0167073 83.015625 0 C83.95134842 -0.00607269 84.88707184 -0.01214539 85.85115051 -0.0184021 C92.25691232 0.04425469 95.53194242 1.05298535 100.22447205 5.59765625 C102.3937691 9.11990147 102.49697907 12.02400521 102.44140625 16.03662109 C102.44692505 16.79009827 102.45244385 17.54357544 102.45812988 18.31988525 C102.46742884 19.94966023 102.46757242 21.57950787 102.4595356 23.20928955 C102.44688709 25.79061081 102.45821118 28.37086569 102.47557068 30.95214844 C102.50225748 35.5007965 102.50786688 40.0491825 102.50646973 44.59790039 C102.50424022 51.87818175 102.51837555 59.15813895 102.56205559 66.43829346 C102.57188624 68.97824176 102.5631812 71.51767947 102.55335999 74.05761719 C102.55950507 75.61833021 102.5664171 77.17904047 102.57421875 78.73974609 C102.56649948 79.44327209 102.55878021 80.1467981 102.55082703 80.87164307 C102.59610109 85.26639853 103.45301903 87.8018527 105.94311523 91.38818359 C109.33036512 101.1634685 109.42751789 112.20898794 105.41186523 121.81787109 C100.43758843 130.5228555 92.49996832 138.07416718 83.07983398 141.62255859 C72.65331985 144.16751099 61.53276849 143.28126486 51.94311523 138.38818359 C51.61311523 138.05818359 51.28311523 137.72818359 50.94311523 137.38818359 C49.10861432 137.28572711 47.27021087 137.2524699 45.43286133 137.24633789 C44.25428558 137.23930344 43.07570984 137.23226898 41.86141968 137.22502136 C40.57611359 137.22085709 39.2908075 137.21669281 37.96655273 137.21240234 C35.95906479 137.19514377 33.95157673 137.17786149 31.94410133 137.15919971 C26.97977315 137.113597 22.01555127 137.07592439 17.05102539 137.06225586 C14.27214912 137.0541027 11.49372107 137.03547711 8.71499634 137.00532532 C6.09628251 136.97721363 3.47735176 136.96425986 0.85848999 136.96818542 C-5.97356284 136.8740994 -10.50914546 136.5169128 -16.05688477 132.38818359 C-16.05688477 131.72818359 -16.05688477 131.06818359 -16.05688477 130.38818359 C-16.71688477 130.38818359 -17.37688477 130.38818359 -18.05688477 130.38818359 C-19.84806501 127.3008007 -20.31031704 125.06001237 -20.3243103 121.50576782 C-20.33284027 120.5244841 -20.34137024 119.54320038 -20.35015869 118.53218079 C-20.34879913 116.92683723 -20.34879913 116.92683723 -20.34741211 115.2890625 C-20.35412933 114.15694839 -20.36084656 113.02483429 -20.36776733 111.8584137 C-20.38678795 108.11048003 -20.39067358 104.36272504 -20.39282227 100.61474609 C-20.39924722 98.01166713 -20.40597535 95.4085889 -20.41299438 92.80551147 C-20.42578065 87.34640335 -20.42875974 81.88734373 -20.42749023 76.42822266 C-20.42628903 70.12517439 -20.44738793 63.82246865 -20.47897756 57.51950705 C-20.50831603 51.44863504 -20.51546542 45.37792697 -20.51427078 39.30698776 C-20.51663213 36.72738623 -20.5254855 34.14778221 -20.54093552 31.56822586 C-20.56052021 27.96055896 -20.5547861 24.35377471 -20.54272461 20.74609375 C-20.55396362 19.67991318 -20.56520264 18.6137326 -20.57678223 17.51524353 C-20.5272519 11.68823513 -20.25227655 7.82155215 -16.05688477 3.38818359 C-10.94854332 -0.21830267 -6.01806696 -0.03914095 0 0 Z M55.50561523 31.26318359 C54.629375 31.34165527 53.75313477 31.42012695 52.8503418 31.50097656 C52.01599609 31.58492676 51.18165039 31.66887695 50.32202148 31.75537109 C49.57509033 31.82868652 48.82815918 31.90200195 48.05859375 31.97753906 C45.74766008 32.42612422 43.9923883 33.24805628 41.94311523 34.38818359 C42.43811523 35.87318359 42.43811523 35.87318359 42.94311523 37.38818359 C43.60311523 37.38818359 44.26311523 37.38818359 44.94311523 37.38818359 C45.43811523 38.87318359 45.43811523 38.87318359 45.94311523 40.38818359 C47.344171 41.81675478 47.344171 41.81675478 49.00561523 43.07568359 C50.45967773 44.22037109 50.45967773 44.22037109 51.94311523 45.38818359 C51.17091585 52.49563542 45.65974405 57.18234526 40.94311523 62.13818359 C40.4396759 62.67030457 39.93623657 63.20242554 39.4175415 63.75067139 C32.7628154 70.60244257 27.54323963 74.62652121 17.63061523 75.10791016 C14.43142141 75.01642378 11.27834659 74.77767209 8.09155273 74.48974609 C4.08744644 74.18065223 3.32626326 74.12919493 -0.14282227 76.47412109 C-2.07578516 79.41695847 -3.01326093 82.04777698 -4.05688477 85.38818359 C0.55125372 85.43776218 5.1592356 85.47398745 9.76757812 85.49804688 C11.3340119 85.50808086 12.90042706 85.52171114 14.46679688 85.5390625 C16.72327277 85.56342585 18.97950018 85.57469276 21.23608398 85.58349609 C21.93211227 85.59381866 22.62814056 85.60414124 23.34526062 85.61477661 C27.32896015 85.61568798 30.35601632 85.1437663 33.94311523 83.38818359 C33.94311523 82.72818359 33.94311523 82.06818359 33.94311523 81.38818359 C34.60311523 81.38818359 35.26311523 81.38818359 35.94311523 81.38818359 C35.94311523 80.72818359 35.94311523 80.06818359 35.94311523 79.38818359 C36.60311523 79.38818359 37.26311523 79.38818359 37.94311523 79.38818359 C37.94311523 78.72818359 37.94311523 78.06818359 37.94311523 77.38818359 C38.60311523 77.38818359 39.26311523 77.38818359 39.94311523 77.38818359 C39.94311523 76.72818359 39.94311523 76.06818359 39.94311523 75.38818359 C40.54124023 75.12005859 41.13936523 74.85193359 41.75561523 74.57568359 C43.94159377 73.38900953 45.35644117 72.29219247 46.94311523 70.38818359 C46.94311523 69.72818359 46.94311523 69.06818359 46.94311523 68.38818359 C47.60311523 68.38818359 48.26311523 68.38818359 48.94311523 68.38818359 C48.94311523 67.72818359 48.94311523 67.06818359 48.94311523 66.38818359 C49.60311523 66.38818359 50.26311523 66.38818359 50.94311523 66.38818359 C50.94311523 65.72818359 50.94311523 65.06818359 50.94311523 64.38818359 C51.60311523 64.38818359 52.26311523 64.38818359 52.94311523 64.38818359 C52.94311523 63.72818359 52.94311523 63.06818359 52.94311523 62.38818359 C53.54124023 62.12005859 54.13936523 61.85193359 54.75561523 61.57568359 C56.99880801 60.52771051 56.99880801 60.52771051 58.38061523 58.70068359 C59.94311523 57.38818359 59.94311523 57.38818359 62.27905273 57.58349609 C65.35779021 58.51343732 66.8215727 59.73989819 69.13061523 61.95068359 C71.62301369 64.65303738 71.62301369 64.65303738 74.94311523 65.38818359 C77.02709065 58.43025751 77.40081057 51.74994135 77.63061523 44.51318359 C77.67766602 43.37365234 77.7247168 42.23412109 77.77319336 41.06005859 C78.26467863 35.55757645 78.26467863 35.55757645 76.94311523 30.38818359 C69.74817072 30.0911446 62.66271515 30.58260047 55.50561523 31.26318359 Z " fill="#04827C" transform="translate(66.056884765625,175.61181640625)"/>
<path d="M0 0 C6.97092193 4.91698958 11.25806306 10.58335143 13 19 C13.93421196 28.23432589 11.74703823 36.91180315 5.8828125 44.17578125 C-1.58392607 51.41015244 -9.30903597 53.36464418 -19.41015625 53.28125 C-25.63954797 52.7932019 -29.89450106 50.7137782 -34.6875 46.8125 C-42.04977452 37.85838234 -44.79012942 31.63504299 -44 20 C-42.82190629 11.4167458 -38.5286654 5.56408809 -32 0 C-22.42031879 -6.16404032 -9.54793258 -6.13020672 0 0 Z " fill="#BADE32" transform="translate(153,257)"/>
<path d="M0 0 C34 0 34 0 46 6 C46 6.66 46 7.32 46 8 C46.66 8 47.32 8 48 8 C52.47304014 13.2758935 54.34948372 18.3421742 56 25 C56.18820312 25.66644531 56.37640625 26.33289063 56.5703125 27.01953125 C57.04976567 29.22937448 57.13273951 31.24006329 57.125 33.5 C57.12886719 34.62921875 57.12886719 34.62921875 57.1328125 35.78125 C57.00126643 37.97884324 56.54864733 39.87508019 56 42 C56 42.99 56 43.98 56 45 C55.6937566 46.33981486 55.36548445 47.67511887 55 49 C54.34 49 53.68 49 53 49 C53 50.32 53 51.64 53 53 C52.34 53 51.68 53 51 53 C50.90332031 53.58910156 50.80664062 54.17820312 50.70703125 54.78515625 C49.28029095 59.25455817 45.6743415 61.20750046 42 64 C30 69 30 69 0 68 C0 45.56 0 23.12 0 0 Z M15 15 C15 27.87 15 40.74 15 54 C21.89623962 54.98517709 27.60623737 55.36233681 33.8671875 51.99609375 C37.71016508 49.0995211 40.02415845 45.65524411 41 41 C41.87654725 32.9942018 41.66114089 26.01135921 37.55859375 18.93359375 C34.99724466 15.75598022 32.95631264 14.98907816 29 14 C24.32174933 13.50755256 19.66749157 14.48138983 15 15 Z " fill="#0E3B58" transform="translate(255,205)"/>
<path d="M0 0 C4.95 0 9.9 0 15 0 C15 8.58 15 17.16 15 26 C23.25 26 31.5 26 40 26 C40 17.42 40 8.84 40 0 C44.95 0 49.9 0 55 0 C55.02255318 8.84882724 55.04091634 17.69763552 55.05181217 26.54648495 C55.05704046 30.65494285 55.06413713 34.76338014 55.07543945 38.87182617 C55.08627025 42.83346828 55.09227724 46.79509052 55.09487724 50.75674629 C55.09673114 52.27148311 55.1003511 53.78621879 55.10573006 55.30094719 C55.11294307 57.41541813 55.11399083 59.52980594 55.11352539 61.64428711 C55.115746 62.85007919 55.11796661 64.05587128 55.12025452 65.29820251 C55 68 55 68 54 69 C51.83519203 69.0989294 49.66706215 69.129711 47.5 69.125 C46.3140625 69.12757813 45.128125 69.13015625 43.90625 69.1328125 C41 69 41 69 40 68 C39.84193469 66.07521187 39.748865 64.1450079 39.68359375 62.21484375 C39.64169922 61.04501953 39.59980469 59.87519531 39.55664062 58.66992188 C39.51732422 57.43822266 39.47800781 56.20652344 39.4375 54.9375 C39.39431641 53.70193359 39.35113281 52.46636719 39.30664062 51.19335938 C39.20015889 48.12905159 39.09953935 45.06454115 39 42 C31.41 42 23.82 42 16 42 C16.01160156 43.86527344 16.02320313 45.73054688 16.03515625 47.65234375 C16.04453225 50.08072817 16.05363265 52.50911367 16.0625 54.9375 C16.07087891 56.16919922 16.07925781 57.40089844 16.08789062 58.66992188 C16.09272461 60.4246582 16.09272461 60.4246582 16.09765625 62.21484375 C16.10551147 63.84087524 16.10551147 63.84087524 16.11352539 65.49975586 C16 68 16 68 15 69 C12.66839945 69.09909302 10.33370058 69.12970504 8 69.125 C6.72125 69.12757813 5.4425 69.13015625 4.125 69.1328125 C1 69 1 69 0 68 C-0.0942174 65.88318683 -0.11742761 63.76319242 -0.11352539 61.64428711 C-0.11367142 60.98089828 -0.11381744 60.31750946 -0.1139679 59.63401794 C-0.11326881 57.43176044 -0.10547665 55.22958655 -0.09765625 53.02734375 C-0.09579206 51.50419664 -0.09436816 49.98104893 -0.09336853 48.457901 C-0.08954346 44.44162349 -0.07971328 40.42538192 -0.06866455 36.40911865 C-0.05845019 32.31376634 -0.05387086 28.21840824 -0.04882812 24.12304688 C-0.03809099 16.08201288 -0.02049429 8.04101505 0 0 Z " fill="#073755" transform="translate(192,205)"/>
<path d="M0 0 C37.65360825 0 37.65360825 0 44.05859375 5.89453125 C47.29661698 10.39841059 48.54978969 13.48492364 49 19 C49.66 19.33 50.32 19.66 51 20 C51.69922871 26.64267275 49.08916733 32.81496453 45.48828125 38.3046875 C44.99714844 38.86414063 44.50601563 39.42359375 44 40 C43.34 40 42.68 40 42 40 C42 40.66 42 41.32 42 42 C33.28401892 47.07111627 25.88276524 46.3112682 16 46 C16 53.26 16 60.52 16 68 C11.22041378 70.38979311 5.34373985 69 0 69 C0 46.23 0 23.46 0 0 Z M16 13 C14.5954819 15.80903621 14.86790746 18.18114508 14.875 21.3125 C14.87242187 22.44300781 14.86984375 23.57351562 14.8671875 24.73828125 C14.98458949 27.62153596 15.33787012 30.1990855 16 33 C24.98650252 33.50387049 24.98650252 33.50387049 33 30 C34.5182063 27.0104818 35.07414983 24.34815017 35 21 C33.44850355 17.65831534 32.48440437 15.60303927 29 14.1875 C28.34 14.125625 27.68 14.06375 27 14 C26.1028125 13.7215625 26.1028125 13.7215625 25.1875 13.4375 C22.11495812 12.82299162 19.12323592 12.93993777 16 13 Z " fill="#0A3A57" transform="translate(317,205)"/>
<path d="M0 0 C4.51277188 2.74690463 6.7363414 5.91885529 8 11 C9.3897786 20.16174438 9.09297245 29.57035459 9.125 38.8125 C9.12975342 39.98852783 9.13450684 41.16455566 9.1394043 42.3762207 C9.13614136 44.02497192 9.13614136 44.02497192 9.1328125 45.70703125 C9.13168457 46.7019458 9.13055664 47.69686035 9.12939453 48.72192383 C9 51 9 51 8 52 C5.64686445 52.07271741 3.29166332 52.08370868 0.9375 52.0625 C-0.35285156 52.05347656 -1.64320313 52.04445313 -2.97265625 52.03515625 C-3.97167969 52.02355469 -4.97070312 52.01195312 -6 52 C-6.33 50.68 -6.66 49.36 -7 48 C-8.485 48.495 -8.485 48.495 -10 49 C-10 49.66 -10 50.32 -10 51 C-17.05435256 53.66497763 -24.24463542 53.69359579 -31.1875 50.5625 C-31.785625 50.046875 -32.38375 49.53125 -33 49 C-33 48.34 -33 47.68 -33 47 C-33.66 47 -34.32 47 -35 47 C-37.86126463 42.02543618 -38.32493296 36.66417231 -38 31 C-36.70219173 27.91513034 -35.38967123 26.44524498 -33 24 C-32.34 24 -31.68 24 -31 24 C-31 23.34 -31 22.68 -31 22 C-25.83184719 19.94277412 -21.1077704 19.58486681 -15.625 19.375 C-14.79355469 19.33632812 -13.96210938 19.29765625 -13.10546875 19.2578125 C-11.07064844 19.16425754 -9.03535584 19.08107287 -7 19 C-7 16.69 -7 14.38 -7 12 C-7.66 12 -8.32 12 -9 12 C-9 11.34 -9 10.68 -9 10 C-10.43791516 10.14168137 -11.8753237 10.28851043 -13.3125 10.4375 C-14.11300781 10.51871094 -14.91351563 10.59992188 -15.73828125 10.68359375 C-18.16087179 10.95265693 -18.16087179 10.95265693 -21 12 C-21.33 13.32 -21.66 14.64 -22 16 C-28.435 16.495 -28.435 16.495 -35 17 C-35.49940808 10.88225104 -34.24900602 7.97504047 -31 3 C-30.34 3 -29.68 3 -29 3 C-29 2.34 -29 1.68 -29 1 C-18.55698185 -3.37240386 -10.54533548 -4.75976232 0 0 Z M-15 28.8125 C-16.60875 29.03873047 -16.60875 29.03873047 -18.25 29.26953125 C-21.31773148 29.75969038 -21.31773148 29.75969038 -23 33 C-23.16699232 36.12521833 -23.16699232 36.12521833 -23 39 C-19.63441986 41.3839526 -16.80452287 41.1746316 -12.90625 40.52734375 C-9.86474665 39.68594426 -8.65311493 38.68631176 -7 36 C-6.68359572 33.24200935 -6.81376854 30.79347188 -7 28 C-9.71874736 28 -12.31054975 28.41490098 -15 28.8125 Z " fill="#053756" transform="translate(404,222)"/>
<path d="M0 0 C1.09863281 1.78808594 1.09863281 1.78808594 2 4 C1.13470581 5.85909742 0.24580216 7.71003351 -0.74414062 9.50585938 C-3.34327542 14.66774917 -4.92736382 20.27745735 -6.75 25.75 C-9.78791977 34.74259563 -12.90950657 43.68504207 -16.4375 52.5 C-16.75493164 53.29889648 -17.07236328 54.09779297 -17.39941406 54.92089844 C-20.37882776 62.24622384 -23.19155924 67.76351593 -30.6875 71.25 C-35.11379375 72.25217972 -39.48241682 72.52873607 -44 72 C-44.99 71.34 -45.98 70.68 -47 70 C-47.29296875 67.3984375 -47.29296875 67.3984375 -47.1875 64.375 C-47.16042969 63.37210937 -47.13335937 62.36921875 -47.10546875 61.3359375 C-47.07066406 60.56507813 -47.03585937 59.79421875 -47 59 C-44.40050483 58.30145725 -42.0815765 57.90499067 -39.375 57.625 C-38.26125 57.41875 -37.1475 57.2125 -36 57 C-33.75900393 54.29420183 -33.75900393 54.29420183 -34.13671875 51.80078125 C-35.3461052 46.33709923 -36.86259222 41.17746586 -39 36 C-43.73111743 24.48539307 -47.57607406 12.9837408 -51 1 C-45.72 1 -40.44 1 -35 1 C-33 5 -33 5 -32.625 8.125 C-31.96037943 12.24564754 -30.66376348 15.53244517 -29.0546875 19.35546875 C-27.40882511 23.48231631 -26.20037572 27.72593492 -25 32 C-22.2951205 29.2951205 -22.04840339 26.89256071 -21.125 23.1875 C-20.779335 21.83412527 -20.43163578 20.48126867 -20.08203125 19.12890625 C-19.90494629 18.44328613 -19.72786133 17.75766602 -19.54541016 17.05126953 C-15.74027237 2.74027237 -15.74027237 2.74027237 -14 1 C-11.65012738 0.76472227 -9.29443961 0.58613583 -6.9375 0.4375 C-5.64714844 0.35371094 -4.35679687 0.26992187 -3.02734375 0.18359375 C-2.02832031 0.12300781 -1.02929688 0.06242188 0 0 Z " fill="#12405D" transform="translate(464,220)"/>
<path d="M0 0 C7.34689742 4.71704209 12.08207487 9.84874974 14.65625 18.265625 C15.11378713 20.58410639 15.1597247 22.71293923 15.125 25.07421875 C15.11597656 25.8734375 15.10695312 26.67265625 15.09765625 27.49609375 C15.08605469 28.099375 15.07445312 28.70265625 15.0625 29.32421875 C14.7325 29.32421875 14.4025 29.32421875 14.0625 29.32421875 C14.0625 27.34421875 14.0625 25.36421875 14.0625 23.32421875 C11.7525 23.65421875 9.4425 23.98421875 7.0625 24.32421875 C7.0625 22.34421875 7.0625 20.36421875 7.0625 18.32421875 C4.73174071 19.28287384 4.73174071 19.28287384 3.0625 22.32421875 C3.0625 21.33421875 3.0625 20.34421875 3.0625 19.32421875 C2.0725 19.32421875 1.0825 19.32421875 0.0625 19.32421875 C0.0625 20.64421875 0.0625 21.96421875 0.0625 23.32421875 C-2.2475 23.32421875 -4.5575 23.32421875 -6.9375 23.32421875 C-6.9375 24.31421875 -6.9375 25.30421875 -6.9375 26.32421875 C-9.73952414 28.89274088 -12.53203323 30.68697511 -15.9375 32.32421875 C-14.638125 33.71447266 -14.638125 33.71447266 -13.3125 35.1328125 C-12.18737012 36.34232712 -11.06237716 37.5519691 -9.9375 38.76171875 C-9.36515625 39.37337891 -8.7928125 39.98503906 -8.203125 40.61523438 C-3.9375 45.2109375 -3.9375 45.2109375 -3.9375 46.32421875 C-10.30113636 46.81372924 -10.30113636 46.81372924 -13.375 44.44921875 C-14.9375 42.32421875 -14.9375 42.32421875 -14.9375 40.32421875 C-15.5975 40.32421875 -16.2575 40.32421875 -16.9375 40.32421875 C-18.91796875 38.27734375 -18.91796875 38.27734375 -21.125 35.57421875 C-21.86105469 34.6925 -22.59710938 33.81078125 -23.35546875 32.90234375 C-23.87753906 32.0515625 -24.39960937 31.20078125 -24.9375 30.32421875 C-24.6075 29.00421875 -24.2775 27.68421875 -23.9375 26.32421875 C-20.9675 26.32421875 -17.9975 26.32421875 -14.9375 26.32421875 C-14.6075 25.00421875 -14.2775 23.68421875 -13.9375 22.32421875 C-17.5675 22.32421875 -21.1975 22.32421875 -24.9375 22.32421875 C-24.9375 21.00421875 -24.9375 19.68421875 -24.9375 18.32421875 C-21.3075 18.32421875 -17.6775 18.32421875 -13.9375 18.32421875 C-13.9375 17.66421875 -13.9375 17.00421875 -13.9375 16.32421875 C-17.8975 15.99421875 -21.8575 15.66421875 -25.9375 15.32421875 C-25.9375 13.67421875 -25.9375 12.02421875 -25.9375 10.32421875 C-26.9275 10.32421875 -27.9175 10.32421875 -28.9375 10.32421875 C-28.9375 9.66421875 -28.9375 9.00421875 -28.9375 8.32421875 C-30.5875 7.99421875 -32.2375 7.66421875 -33.9375 7.32421875 C-33.9375 8.64421875 -33.9375 9.96421875 -33.9375 11.32421875 C-35.2575 11.65421875 -36.5775 11.98421875 -37.9375 12.32421875 C-37.9375 13.64421875 -37.9375 14.96421875 -37.9375 16.32421875 C-38.5975 16.32421875 -39.2575 16.32421875 -39.9375 16.32421875 C-38.39470609 9.46735691 -33.94485659 4.52472357 -28.375 0.44921875 C-19.32610783 -3.72719302 -9.04767738 -4.74005157 0 0 Z " fill="#AFDB3F" transform="translate(150.9375,255.67578125)"/>
<path d="M0 0 C3.48670834 1.1094072 6.77484237 2.26337666 10 4 C10 4.66 10 5.32 10 6 C10.66 6 11.32 6 12 6 C16.47304014 11.2758935 18.34948372 16.3421742 20 23 C20.18820312 23.66644531 20.37640625 24.33289063 20.5703125 25.01953125 C21.04976567 27.22937448 21.13273951 29.24006329 21.125 31.5 C21.12886719 32.62921875 21.12886719 32.62921875 21.1328125 33.78125 C21.00126643 35.97884324 20.54864733 37.87508019 20 40 C20 40.99 20 41.98 20 43 C19.6937566 44.33981486 19.36548445 45.67511887 19 47 C18.34 47 17.68 47 17 47 C17 48.32 17 49.64 17 51 C16.34 51 15.68 51 15 51 C14.91105469 51.58652344 14.82210938 52.17304688 14.73046875 52.77734375 C13.04103986 57.91790545 7.21079021 61.24028849 2.8125 64 C-0.31073966 65.11048521 -1.88105638 65.00907 -5 64 C-3.875 62 -3.875 62 -2 60 C1.1875 59.75 1.1875 59.75 4 60 C4 59.34 4 58.68 4 58 C4.99 57.505 4.99 57.505 6 57 C4.7625 56.319375 4.7625 56.319375 3.5 55.625 C2.675 55.08875 1.85 54.5525 1 54 C1 53.34 1 52.68 1 52 C-4.94 52.495 -4.94 52.495 -11 53 C-11 52.67 -11 52.34 -11 52 C-10.39671875 51.84144531 -9.7934375 51.68289063 -9.171875 51.51953125 C-3.98625712 50.00566539 -0.88096797 48.84002619 2 44 C5.10838651 37.52325284 5.43227714 29.17851286 3.1015625 22.37890625 C2.15042703 20.54071891 1.084716 18.76266349 0 17 C0 16.34 0 15.68 0 15 C-0.66 15 -1.32 15 -2 15 C-2 13 -2 13 0.4375 10.5 C1.7059375 9.2625 1.7059375 9.2625 3 8 C3.33 7.34 3.66 6.68 4 6 C3.34 6 2.68 6 2 6 C1 3 1 3 0 0 Z M0 55 C2 56 2 56 2 56 Z " fill="#0D3B58" transform="translate(291,207)"/>
<path d="M0 0 C0.33 0 0.66 0 1 0 C1.91479356 8.22480679 2.15297556 16.35356062 2.125 24.625 C2.13080078 26.39810547 2.13080078 26.39810547 2.13671875 28.20703125 C2.13542969 29.32722656 2.13414062 30.44742187 2.1328125 31.6015625 C2.13168457 32.61557129 2.13055664 33.62958008 2.12939453 34.67431641 C2 37 2 37 1 38 C-1.35313555 38.07271741 -3.70833668 38.08370868 -6.0625 38.0625 C-7.35285156 38.05347656 -8.64320313 38.04445313 -9.97265625 38.03515625 C-10.97167969 38.02355469 -11.97070312 38.01195312 -13 38 C-13.33 36.68 -13.66 35.36 -14 34 C-15.485 34.495 -15.485 34.495 -17 35 C-17 35.66 -17 36.32 -17 37 C-24.05435256 39.66497763 -31.24463542 39.69359579 -38.1875 36.5625 C-38.785625 36.046875 -39.38375 35.53125 -40 35 C-40 34.34 -40 33.68 -40 33 C-40.66 33 -41.32 33 -42 33 C-44.86126463 28.02543618 -45.32493296 22.66417231 -45 17 C-43.70219173 13.91513034 -42.38967123 12.44524498 -40 10 C-39.34 10 -38.68 10 -38 10 C-38 9.34 -38 8.68 -38 8 C-33.29538677 6.13867327 -29.1242304 5.7490504 -24.125 5.875 C-23.09246094 5.88853516 -23.09246094 5.88853516 -22.0390625 5.90234375 C-20.35922162 5.92567487 -18.67956254 5.96153674 -17 6 C-17 6.33 -17 6.66 -17 7 C-21.62 7 -26.24 7 -31 7 C-31.33 8.65 -31.66 10.3 -32 12 C-31.34 12 -30.68 12 -30 12 C-29.38125 11.319375 -28.7625 10.63875 -28.125 9.9375 C-27.42375 9.298125 -26.7225 8.65875 -26 8 C-23.75 8.25 -23.75 8.25 -22 9 C-21.67 10.32 -21.34 11.64 -21 13 C-18.525 13.495 -18.525 13.495 -16 14 C-16 14.33 -16 14.66 -16 15 C-16.77085937 15.12117187 -17.54171875 15.24234375 -18.3359375 15.3671875 C-19.33882813 15.53476563 -20.34171875 15.70234375 -21.375 15.875 C-22.87160156 16.11863281 -22.87160156 16.11863281 -24.3984375 16.3671875 C-27.1425115 16.7958802 -27.1425115 16.7958802 -29 19 C-29.39764263 20.98821313 -29.73775349 22.98944339 -30 25 C-24.05542387 26.09644404 -20.32006564 26.41029848 -15 23 C-15.33 25.97 -15.66 28.94 -16 32 C-14.68 32 -13.36 32 -12 32 C-12 33.32 -12 34.64 -12 36 C-8.04 36 -4.08 36 0 36 C0 24.12 0 12.24 0 0 Z " fill="#123F5B" transform="translate(411,236)"/>
<path d="M0 0 C0.66 0 1.32 0 2 0 C5.18662998 9.94228553 5.54894028 20.66637505 1.46875 30.4296875 C-3.51215252 39.14626691 -11.43953298 46.64870884 -20.84765625 50.2421875 C-24.83638425 51.20106387 -28.5972554 51.36615049 -32.6875 51.375 C-33.75629395 51.37741699 -33.75629395 51.37741699 -34.84667969 51.37988281 C-39.54858497 51.28160797 -43.53188362 50.46399619 -48 49 C-47.34 48.54625 -46.68 48.0925 -46 47.625 C-45.34 47.08875 -44.68 46.5525 -44 46 C-44 45.34 -44 44.68 -44 44 C-44.66 43.67 -45.32 43.34 -46 43 C-46 42.34 -46 41.68 -46 41 C-44.72382812 41.23589844 -44.72382812 41.23589844 -43.421875 41.4765625 C-33.29026549 43.02637491 -24.61825581 42.9589083 -16 37 C-11.77430354 33.50920727 -9.59000277 29.73345334 -7 25 C-6.34 24.34 -5.68 23.68 -5 23 C-4.505 25.97 -4.505 25.97 -4 29 C-3.34 27.35 -2.68 25.7 -2 24 C-1.34 24 -0.68 24 0 24 C0.22389218 21.47970021 0.42942078 18.96002743 0.625 16.4375 C0.68945312 15.73302734 0.75390625 15.02855469 0.8203125 14.30273438 C1.18349638 9.37705301 0.60922409 5.67412034 -1 1 C-0.67 0.67 -0.34 0.34 0 0 Z " fill="#077D74" transform="translate(170,267)"/>
<path d="M0 0 C3.0625 2.1875 3.0625 2.1875 5 4 C4.34 5.32 3.68 6.64 3 8 C2.505 6.02 2.505 6.02 2 4 C-0.25552668 4.84681777 -0.25552668 4.84681777 -0.9375 7.4375 C-2 10 -2 10 -5 12 C-5.57748803 13.96361864 -5.57748803 13.96361864 -5.6875 16.125 C-5.790625 17.40375 -5.89375 18.6825 -6 20 C-7.32 19.67 -8.64 19.34 -10 19 C-9.01 19 -8.02 19 -7 19 C-7 16.69 -7 14.38 -7 12 C-7.66 12 -8.32 12 -9 12 C-9 11.34 -9 10.68 -9 10 C-10.43791516 10.14168137 -11.8753237 10.28851043 -13.3125 10.4375 C-14.11300781 10.51871094 -14.91351563 10.59992188 -15.73828125 10.68359375 C-18.16087179 10.95265693 -18.16087179 10.95265693 -21 12 C-21.33 13.32 -21.66 14.64 -22 16 C-28.435 16.495 -28.435 16.495 -35 17 C-35.49940808 10.88225104 -34.24900602 7.97504047 -31 3 C-30.34 3 -29.68 3 -29 3 C-29 2.34 -29 1.68 -29 1 C-18.63098607 -3.34141891 -10.47033891 -4.84025338 0 0 Z " fill="#0D3B58" transform="translate(404,222)"/>
<path d="M0 0 C7.92 0 15.84 0 24 0 C24 1.65 24 3.3 24 5 C21.36 5 18.72 5 16 5 C16 6.32 16 7.64 16 9 C18.64 9 21.28 9 24 9 C24 10.32 24 11.64 24 13 C21.69 13 19.38 13 17 13 C16.896875 13.763125 16.79375 14.52625 16.6875 15.3125 C15.93476436 18.25501204 15.3575763 19.16632954 13 21 C11.67412798 21.68138506 10.34152815 22.3499812 9 23 C9.86625 23.92683594 10.7325 24.85367187 11.625 25.80859375 C12.75012988 27.01810837 13.87512284 28.22775035 15 29.4375 C15.57234375 30.04916016 16.1446875 30.66082031 16.734375 31.29101562 C21 35.88671875 21 35.88671875 21 37 C14.63636364 37.48951049 14.63636364 37.48951049 11.5625 35.125 C10 33 10 33 10 31 C9.34 31 8.68 31 8 31 C6.01953125 28.953125 6.01953125 28.953125 3.8125 26.25 C2.70841797 24.92742187 2.70841797 24.92742187 1.58203125 23.578125 C0.79892578 22.30195313 0.79892578 22.30195313 0 21 C0.33 19.68 0.66 18.36 1 17 C3.97 17 6.94 17 10 17 C10.33 15.68 10.66 14.36 11 13 C7.37 13 3.74 13 0 13 C0 11.68 0 10.36 0 9 C3.63 9 7.26 9 11 9 C10.34 7.68 9.68 6.36 9 5 C6.81458448 4.3006486 6.81458448 4.3006486 4.375 4.25 C3.14910156 4.16492188 3.14910156 4.16492188 1.8984375 4.078125 C1.27195312 4.05234375 0.64546875 4.0265625 0 4 C0 2.68 0 1.36 0 0 Z " fill="#067E79" transform="translate(126,265)"/>
<path d="M0 0 C3 1 3 1 4 3 C4.15004973 4.3734635 4.24838006 5.7528526 4.31640625 7.1328125 C4.35830078 7.93847656 4.40019531 8.74414062 4.44335938 9.57421875 C4.48267578 10.41597656 4.52199219 11.25773438 4.5625 12.125 C4.60568359 12.97449219 4.64886719 13.82398438 4.69335938 14.69921875 C4.79954236 16.79928223 4.90028497 18.89961948 5 21 C6.32 21 7.64 21 9 21 C9.33 21.33 9.66 21.66 10 22 C10.268125 21.360625 10.53625 20.72125 10.8125 20.0625 C12 18 12 18 15 17 C16.20882096 14.99983534 16.20882096 14.99983534 17 13 C17.16873478 14.43725871 17.33490737 15.87481838 17.5 17.3125 C17.5928125 18.11300781 17.685625 18.91351563 17.78125 19.73828125 C18.10479491 23.08350447 17.88814849 25.78046171 17 29 C16.34 29 15.68 29 15 29 C15 30.32 15 31.64 15 33 C14.34 33 13.68 33 13 33 C12.91105469 33.58652344 12.82210938 34.17304688 12.73046875 34.77734375 C11.04103986 39.91790545 5.21079021 43.24028849 0.8125 46 C-2.31073966 47.11048521 -3.88105638 47.00907 -7 46 C-5.875 44 -5.875 44 -4 42 C-0.8125 41.75 -0.8125 41.75 2 42 C2 41.34 2 40.68 2 40 C2.99 39.505 2.99 39.505 4 39 C2.7625 38.319375 2.7625 38.319375 1.5 37.625 C0.675 37.08875 -0.15 36.5525 -1 36 C-1 35.34 -1 34.68 -1 34 C-6.94 34.495 -6.94 34.495 -13 35 C-13 34.67 -13 34.34 -13 34 C-12.39671875 33.84144531 -11.7934375 33.68289063 -11.171875 33.51953125 C-5.98625712 32.00566539 -2.88096797 30.84002619 0 26 C3.35336759 19.07535646 3.10432787 9.96008571 1 2.625 C0.67 1.75875 0.34 0.8925 0 0 Z M-2 37 C0 38 0 38 0 38 Z " fill="#113E5B" transform="translate(293,225)"/>
<path d="M0 0 C0.33 0 0.66 0 1 0 C1.03758423 0.83978394 1.03758423 0.83978394 1.07592773 1.6965332 C1.19203745 4.23541305 1.3146958 6.77393553 1.4375 9.3125 C1.47681641 10.19357422 1.51613281 11.07464844 1.55664062 11.98242188 C1.59853516 12.82998047 1.64042969 13.67753906 1.68359375 14.55078125 C1.73858032 15.72120972 1.73858032 15.72120972 1.79467773 16.9152832 C1.94125263 19.19329101 1.94125263 19.19329101 3 22 C3.66 22 4.32 22 5 22 C5 22.99 5 23.98 5 25 C7.31 24.01 9.62 23.02 12 22 C12 23.32 12 24.64 12 26 C12.99 25.34 13.98 24.68 15 24 C14.65555119 21.52733235 14.65555119 21.52733235 14 19 C13.34 18.67 12.68 18.34 12 18 C12 17.34 12 16.68 12 16 C12.66 16 13.32 16 14 16 C14.33 14.35 14.66 12.7 15 11 C15.556875 11.70125 16.11375 12.4025 16.6875 13.125 C17.89907369 14.6312808 19.11587354 16.13425574 20.37890625 17.59765625 C24 21.79647436 24 21.79647436 24 24 C24.66 24 25.32 24 26 24 C26.556875 24.804375 27.11375 25.60875 27.6875 26.4375 C30.65498471 29.72579387 32.68157031 29.75085983 37 30 C37 30.33 37 30.66 37 31 C33.04 31.33 29.08 31.66 25 32 C25 30.68 25 29.36 25 28 C23.35 28 21.7 28 20 28 C20.2475 28.8971875 20.2475 28.8971875 20.5 29.8125 C21 32 21 32 21 35 C22.81115956 36.81115956 25.61278227 36.38199448 28.0625 36.5625 C29.16722656 36.64628906 30.27195313 36.73007812 31.41015625 36.81640625 C32.26480469 36.87699219 33.11945313 36.93757813 34 37 C34 37.33 34 37.66 34 38 C23.88384147 38.51803941 16.33923283 38.34588718 8.3125 31.8125 C2.66294681 24.9414218 -1.15009513 19.609296 -1.125 10.5625 C-1.12886719 9.17224609 -1.12886719 9.17224609 -1.1328125 7.75390625 C-1.00344052 5.07134019 -0.59782834 2.61431282 0 0 Z " fill="#BBDC33" transform="translate(110,272)"/>
<path d="M0 0 C0.66 0 1.32 0 2 0 C5.18662998 9.94228553 5.54894028 20.66637505 1.46875 30.4296875 C-2.36780803 37.14366404 -7.93867601 42.30701722 -14 47 C-14.66 46.67 -15.32 46.34 -16 46 C-16.25 43.6875 -16.25 43.6875 -16 41 C-14 39.1875 -14 39.1875 -12 38 C-11.34 38.33 -10.68 38.66 -10 39 C-10.21527344 38.46890625 -10.43054688 37.9378125 -10.65234375 37.390625 C-11.14963651 33.97103884 -9.95598286 31.87683958 -8.5625 28.75 C-8.08941406 27.67234375 -7.61632812 26.5946875 -7.12890625 25.484375 C-6.75636719 24.66453125 -6.38382813 23.8446875 -6 23 C-5.67 23 -5.34 23 -5 23 C-4.67 24.98 -4.34 26.96 -4 29 C-3.34 27.35 -2.68 25.7 -2 24 C-1.34 24 -0.68 24 0 24 C0.22389218 21.47970021 0.42942078 18.96002743 0.625 16.4375 C0.68945312 15.73302734 0.75390625 15.02855469 0.8203125 14.30273438 C1.18349638 9.37705301 0.60922409 5.67412034 -1 1 C-0.67 0.67 -0.34 0.34 0 0 Z " fill="#147D73" transform="translate(170,267)"/>
<path d="M0 0 C0.33 0 0.66 0 1 0 C1.02312589 8.8488239 1.04091634 17.69763747 1.05181217 26.54648495 C1.05704046 30.65494285 1.06413713 34.76338014 1.07543945 38.87182617 C1.08627025 42.83346828 1.09227724 46.79509052 1.09487724 50.75674629 C1.09673114 52.27148311 1.1003511 53.78621879 1.10573006 55.30094719 C1.11294307 57.41541813 1.11399083 59.52980594 1.11352539 61.64428711 C1.115746 62.85007919 1.11796661 64.05587128 1.12025452 65.29820251 C1 68 1 68 0 69 C-2.16480797 69.0989294 -4.33293785 69.129711 -6.5 69.125 C-7.6859375 69.12757813 -8.871875 69.13015625 -10.09375 69.1328125 C-13 69 -13 69 -14 68 C-14.15806531 66.07521187 -14.251135 64.1450079 -14.31640625 62.21484375 C-14.35830078 61.04501953 -14.40019531 59.87519531 -14.44335938 58.66992188 C-14.48267578 57.43822266 -14.52199219 56.20652344 -14.5625 54.9375 C-14.60568359 53.70193359 -14.64886719 52.46636719 -14.69335938 51.19335938 C-14.79984111 48.12905159 -14.90046065 45.06454115 -15 42 C-22.59 42 -30.18 42 -38 42 C-37.98839844 43.86527344 -37.97679687 45.73054688 -37.96484375 47.65234375 C-37.95546775 50.08072817 -37.94636735 52.50911367 -37.9375 54.9375 C-37.92912109 56.16919922 -37.92074219 57.40089844 -37.91210938 58.66992188 C-37.90727539 60.4246582 -37.90727539 60.4246582 -37.90234375 62.21484375 C-37.89448853 63.84087524 -37.89448853 63.84087524 -37.88647461 65.49975586 C-38 68 -38 68 -39 69 C-41.35313555 69.07271741 -43.70833668 69.08370868 -46.0625 69.0625 C-47.99802734 69.04896484 -47.99802734 69.04896484 -49.97265625 69.03515625 C-50.97167969 69.02355469 -51.97070312 69.01195312 -53 69 C-53.33 68.34 -53.66 67.68 -54 67 C-49.38 67 -44.76 67 -40 67 C-40 58.09 -40 49.18 -40 40 C-31.09 40 -22.18 40 -13 40 C-13 48.91 -13 57.82 -13 67 C-8.71 67 -4.42 67 0 67 C0 44.89 0 22.78 0 0 Z " fill="#9EB8C2" transform="translate(246,205)"/>
<path d="M0 0 C13.36043454 -0.04630217 26.72085004 -0.08185846 40.08134842 -0.10362434 C46.28489258 -0.11406987 52.48838192 -0.12824319 58.69189453 -0.15087891 C64.67651662 -0.17257973 70.66108593 -0.18456283 76.64574432 -0.18975449 C78.93113791 -0.1934552 81.21652855 -0.20068157 83.50189972 -0.21146011 C86.69827054 -0.22593821 89.89442208 -0.22797947 93.09082031 -0.22705078 C94.03956528 -0.23424133 94.98831024 -0.24143188 95.96580505 -0.24884033 C97.27403984 -0.24471634 97.27403984 -0.24471634 98.60870361 -0.24050903 C99.36457386 -0.24235262 100.12044411 -0.24419621 100.89921951 -0.24609566 C103.29100823 0.03409012 104.92110882 0.81333556 107 2 C106.34 2.66 105.68 3.32 105 4 C103.08558453 3.80464394 101.17120655 3.5956235 99.26889229 3.30519104 C95.50074343 2.79833345 91.73814722 2.83036233 87.94116211 2.81054688 C87.0734166 2.80225357 86.20567108 2.79396027 85.31163025 2.78541565 C83.44126568 2.76811852 81.57088069 2.75292431 79.70048332 2.73963928 C76.73642985 2.71845762 73.77247866 2.69144975 70.80848694 2.66296387 C63.45068533 2.59343672 56.09280964 2.5338152 48.73492432 2.47393799 C42.50624246 2.42287834 36.27761646 2.36801939 30.04901314 2.30812073 C27.13595903 2.28166875 24.22289921 2.2607842 21.30979919 2.2401123 C19.51634468 2.22350091 17.72289256 2.20662834 15.92944336 2.18945312 C15.12561218 2.18526871 14.32178101 2.18108429 13.49359131 2.17677307 C8.90132452 2.12604552 4.53204308 1.75201437 0 1 C0 0.67 0 0.34 0 0 Z " fill="#4EA3A1" transform="translate(56,176)"/>
<path d="M0 0 C3.3 0 6.6 0 10 0 C10 0.33 10 0.66 10 1 C7.03 1 4.06 1 1 1 C1 1.66 1 2.32 1 3 C4.63 3 8.26 3 12 3 C12.33 3.99 12.66 4.98 13 6 C13.66 6.33 14.32 6.66 15 7 C15 6.01 15 5.02 15 4 C15.66 4 16.32 4 17 4 C16.50153711 7.68862535 15.9758353 9.68546144 13 12 C11.67412798 12.68138506 10.34152815 13.3499812 9 14 C9.86625 14.92683594 10.7325 15.85367187 11.625 16.80859375 C12.75012988 18.01810837 13.87512284 19.22775035 15 20.4375 C15.57234375 21.04916016 16.1446875 21.66082031 16.734375 22.29101562 C21 26.88671875 21 26.88671875 21 28 C14.63636364 28.48951049 14.63636364 28.48951049 11.5625 26.125 C10 24 10 24 10 22 C9.34 22 8.68 22 8 22 C6.01953125 19.953125 6.01953125 19.953125 3.8125 17.25 C2.70841797 15.92742187 2.70841797 15.92742187 1.58203125 14.578125 C1.05996094 13.72734375 0.53789063 12.8765625 0 12 C0.33 10.68 0.66 9.36 1 8 C3.97 8 6.94 8 10 8 C10.33 6.68 10.66 5.36 11 4 C7.37 4 3.74 4 0 4 C0 2.68 0 1.36 0 0 Z M11 7 C11 7.99 11 8.98 11 10 C11.66 10 12.32 10 13 10 C13 9.01 13 8.02 13 7 C12.34 7 11.68 7 11 7 Z " fill="#158265" transform="translate(126,274)"/>
<path d="M0 0 C7.34918685 0.17751659 13.51594367 2.2407215 18.9375 7.3125 C18.2775 8.6325 17.6175 9.9525 16.9375 11.3125 C16.6075 9.9925 16.2775 8.6725 15.9375 7.3125 C13.68197332 8.15931777 13.68197332 8.15931777 13 10.75 C11.9375 13.3125 11.9375 13.3125 8.9375 15.3125 C8.36001197 17.27611864 8.36001197 17.27611864 8.25 19.4375 C8.0953125 21.355625 8.0953125 21.355625 7.9375 23.3125 C6.6175 22.9825 5.2975 22.6525 3.9375 22.3125 C4.9275 22.3125 5.9175 22.3125 6.9375 22.3125 C6.9375 20.0025 6.9375 17.6925 6.9375 15.3125 C6.2775 15.3125 5.6175 15.3125 4.9375 15.3125 C4.9375 14.6525 4.9375 13.9925 4.9375 13.3125 C2.6275 13.3125 0.3175 13.3125 -2.0625 13.3125 C-2.0625 12.9825 -2.0625 12.6525 -2.0625 12.3125 C-0.4125 11.9825 1.2375 11.6525 2.9375 11.3125 C1.2875 10.9825 -0.3625 10.6525 -2.0625 10.3125 C-1.7325 8.0025 -1.4025 5.6925 -1.0625 3.3125 C0.05125 3.498125 1.165 3.68375 2.3125 3.875 C5.76318861 4.62930657 5.76318861 4.62930657 7.9375 3.3125 C1.0075 2.8175 1.0075 2.8175 -6.0625 2.3125 C-3.71017727 -0.03982273 -3.19969668 0.01692961 0 0 Z " fill="#164763" transform="translate(390.0625,218.6875)"/>
<path d="M0 0 C0.99 0.66 1.98 1.32 3 2 C3 2.66 3 3.32 3 4 C4.11375 4.2475 4.11375 4.2475 5.25 4.5 C9.2407036 6.67674742 10.30013399 9.916523 12 14 C10.35 14.33 8.7 14.66 7 15 C7 14.34 7 13.68 7 13 C3.63991511 11.99413578 0.53770083 11.84614266 -2.96191406 11.79467773 C-4.16285706 11.77473251 -5.36380005 11.75478729 -6.60113525 11.73423767 C-7.89291687 11.71752518 -9.18469849 11.70081268 -10.515625 11.68359375 C-11.85512921 11.66301037 -13.19462713 11.64201354 -14.53411865 11.62062073 C-18.05215341 11.56554291 -21.5702454 11.51607094 -25.08837891 11.46777344 C-28.68136664 11.41745375 -32.27427173 11.36182244 -35.8671875 11.30664062 C-42.91138655 11.199234 -49.9556598 11.09775051 -57 11 C-57 10.67 -57 10.34 -57 10 C-55.97975739 9.99453156 -55.97975739 9.99453156 -54.93890381 9.98895264 C-47.86598419 9.94717442 -40.79371632 9.87786129 -33.72119141 9.79248047 C-31.0809582 9.76423747 -28.44063992 9.74303962 -25.80029297 9.72900391 C-22.0070428 9.70762144 -18.21481921 9.66099209 -14.421875 9.609375 C-13.23946228 9.60814636 -12.05704956 9.60691772 -10.83880615 9.60565186 C-9.1875473 9.57607391 -9.1875473 9.57607391 -7.50292969 9.54589844 C-6.53474304 9.53701599 -5.5665564 9.52813354 -4.56903076 9.51898193 C-1.31774662 8.8621748 -0.10217194 7.49544304 2 5 C0.35 5.33 -1.3 5.66 -3 6 C-3 5.34 -3 4.68 -3 4 C-2.34 3.67 -1.68 3.34 -1 3 C-0.67 2.01 -0.34 1.02 0 0 Z " fill="#057770" transform="translate(115,300)"/>
<path d="M0 0 C1.42505859 0.00580078 1.42505859 0.00580078 2.87890625 0.01171875 C5.4375 0.3125 5.4375 0.3125 8.4375 2.3125 C8.4375 2.9725 8.4375 3.6325 8.4375 4.3125 C9.4275 4.3125 10.4175 4.3125 11.4375 4.3125 C11.4375 5.3025 11.4375 6.2925 11.4375 7.3125 C7.87836771 8.49887743 4.639355 8.45865346 0.9375 8.4375 C0.26074219 8.44136719 -0.41601562 8.44523437 -1.11328125 8.44921875 C-4.20323767 8.44312416 -6.60929311 8.2969023 -9.5625 7.3125 C-9.5625 3.3125 -9.5625 3.3125 -7.91015625 1.58203125 C-5.06968043 0.04600023 -3.21427177 -0.05685107 0 0 Z " fill="#BCDE2F" transform="translate(141.5625,254.6875)"/>
<path d="M0 0 C0.33 1.32 0.66 2.64 1 4 C0.34 4 -0.32 4 -1 4 C-1 41.95 -1 79.9 -1 119 C-0.34 119 0.32 119 1 119 C1.33 120.65 1.66 122.3 2 124 C1.34 124 0.68 124 0 124 C-1.79935978 120.90347614 -2.25082325 118.663231 -2.25396729 115.09739685 C-2.25960693 114.11177765 -2.26524658 113.12615845 -2.27105713 112.110672 C-2.26700867 111.03572983 -2.26296021 109.96078766 -2.25878906 108.85327148 C-2.2622937 107.7163385 -2.26579834 106.57940552 -2.26940918 105.40802002 C-2.27822002 101.64564937 -2.27237988 97.88346635 -2.265625 94.12109375 C-2.26697174 91.51082829 -2.26891234 88.90056307 -2.27142334 86.29029846 C-2.27506051 80.81859295 -2.27026991 75.34694145 -2.26074219 69.87524414 C-2.24985264 63.54837769 -2.25338778 57.2216401 -2.264395 50.89477676 C-2.27456094 44.80789125 -2.27348975 38.7210629 -2.26763153 32.63417244 C-2.26629468 30.04373214 -2.26794399 27.45328857 -2.27259064 24.8628521 C-2.27765252 21.2475899 -2.26995039 17.63257751 -2.25878906 14.01733398 C-2.26283752 12.94036758 -2.26688599 11.86340118 -2.27105713 10.75379944 C-2.26541748 9.77100006 -2.25977783 8.78820068 -2.25396729 7.77561951 C-2.25321323 6.92078193 -2.25245918 6.06594435 -2.25168228 5.1852026 C-2 3 -2 3 0 0 Z " fill="#43938E" transform="translate(48,182)"/>
<path d="M0 0 C1.61949011 2.57213134 2.04408751 3.67669159 1.625 6.75 C1.315625 7.86375 1.315625 7.86375 1 9 C-0.32 9 -1.64 9 -3 9 C-3 9.99 -3 10.98 -3 12 C-2.01 12 -1.02 12 0 12 C1.28317892 15.84953676 1.06643637 18.94738135 1 23 C0.67 23 0.34 23 0 23 C0 20.69 0 18.38 0 16 C-2.97 16 -5.94 16 -9 16 C-9.33 14.35 -9.66 12.7 -10 11 C-12.86724686 11.57344937 -13.8614515 11.8614515 -16 14 C-16.66 14.66 -17.32 15.32 -18 16 C-18.99 15.01 -19.98 14.02 -21 13 C-20.07421875 11.046875 -20.07421875 11.046875 -18 9 C-14.95412663 8.33287457 -11.92231602 8.30291257 -8.8125 8.25 C-7.96751953 8.22035156 -7.12253906 8.19070312 -6.25195312 8.16015625 C-4.16848178 8.0895301 -2.08423494 8.04249205 0 8 C0 5.36 0 2.72 0 0 Z " fill="#042B45" transform="translate(398,234)"/>
<path d="M0 0 C0.66 1.32 1.32 2.64 2 4 C0.35 5.65 -1.3 7.3 -3 9 C-4.32 8.34 -5.64 7.68 -7 7 C-7.33 7.99 -7.66 8.98 -8 10 C-8.99 9.01 -9.98 8.02 -11 7 C-10.67 6.67 -10.34 6.34 -10 6 C-10.66 5.67 -11.32 5.34 -12 5 C-12 5.66 -12 6.32 -12 7 C-12.99 7 -13.98 7 -15 7 C-15.042721 5.33388095 -15.04063832 3.66617115 -15 2 C-13.05909174 0.05909174 -9.52706098 0.60080565 -6.9375 0.4375 C-5.64714844 0.35371094 -4.35679687 0.26992187 -3.02734375 0.18359375 C-2.02832031 0.12300781 -1.02929688 0.06242188 0 0 Z " fill="#264C64" transform="translate(464,220)"/>
<path d="M0 0 C3.3 0 6.6 0 10 0 C10 0.33 10 0.66 10 1 C7.03 1 4.06 1 1 1 C1 1.66 1 2.32 1 3 C4.63 3 8.26 3 12 3 C12.33 3.99 12.66 4.98 13 6 C13.66 6.33 14.32 6.66 15 7 C15 6.01 15 5.02 15 4 C15.66 4 16.32 4 17 4 C16.65415128 6.5592805 16.31949609 8.52075586 14.875 10.6875 C12.13491295 12.60556094 9.21971995 13.21025737 6 14 C6.33 12.68 6.66 11.36 7 10 C6.01 10.33 5.02 10.66 4 11 C4.33 12.98 4.66 14.96 5 17 C2.4375 14.75 2.4375 14.75 0 12 C0.33 10.68 0.66 9.36 1 8 C3.97 8 6.94 8 10 8 C10.33 6.68 10.66 5.36 11 4 C7.37 4 3.74 4 0 4 C0 2.68 0 1.36 0 0 Z M11 7 C11 7.99 11 8.98 11 10 C11.66 10 12.32 10 13 10 C13 9.01 13 8.02 13 7 C12.34 7 11.68 7 11 7 Z " fill="#21825D" transform="translate(126,274)"/>
<path d="M0 0 C1.32 0 2.64 0 4 0 C4.66 0.66 5.32 1.32 6 2 C6.99 1.67 7.98 1.34 9 1 C9.99 1.33 10.98 1.66 12 2 C11.34 3.32 10.68 4.64 10 6 C10.99 6.33 11.98 6.66 13 7 C13 7.99 13 8.98 13 10 C13.66 9.34 14.32 8.68 15 8 C15.99 8 16.98 8 18 8 C18 8.99 18 9.98 18 11 C17.34 11 16.68 11 16 11 C16.24556641 12.19496094 16.24556641 12.19496094 16.49609375 13.4140625 C17.10791538 17.76795599 17.10799591 21.9863942 17.0625 26.375 C17.05798828 27.20644531 17.05347656 28.03789062 17.04882812 28.89453125 C17.03713164 30.92971897 17.01919935 32.96486923 17 35 C16.34 35 15.68 35 15 35 C15.06960937 33.65808594 15.06960937 33.65808594 15.140625 32.2890625 C15.42371214 22.8056433 14.5146736 15.28729381 8.625 7.625 C5.88618782 4.88618782 3.26368181 3.04928858 0 1 C0 0.67 0 0.34 0 0 Z " fill="#158165" transform="translate(150,255)"/>
<path d="M0 0 C0.33 0 0.66 0 1 0 C1.91479356 8.22480679 2.15297556 16.35356062 2.125 24.625 C2.13080078 26.39810547 2.13080078 26.39810547 2.13671875 28.20703125 C2.13542969 29.32722656 2.13414062 30.44742187 2.1328125 31.6015625 C2.13168457 32.61557129 2.13055664 33.62958008 2.12939453 34.67431641 C2 37 2 37 1 38 C-1.35313555 38.07271741 -3.70833668 38.08370868 -6.0625 38.0625 C-7.35285156 38.05347656 -8.64320313 38.04445313 -9.97265625 38.03515625 C-10.97167969 38.02355469 -11.97070312 38.01195312 -13 38 C-13.33 36.68 -13.66 35.36 -14 34 C-14.99 34.495 -14.99 34.495 -16 35 C-16.495 33.515 -16.495 33.515 -17 32 C-15.35 32 -13.7 32 -12 32 C-12 33.32 -12 34.64 -12 36 C-8.04 36 -4.08 36 0 36 C0 24.12 0 12.24 0 0 Z " fill="#697F97" transform="translate(411,236)"/>
<path d="M0 0 C7.92 0 15.84 0 24 0 C24 1.65 24 3.3 24 5 C21.36 5 18.72 5 16 5 C16 6.32 16 7.64 16 9 C18.64 9 21.28 9 24 9 C24 10.32 24 11.64 24 13 C22.02 13 20.04 13 18 13 C19.32 12.67 20.64 12.34 22 12 C22 11.34 22 10.68 22 10 C19.69 10 17.38 10 15 10 C14.67 7.69 14.34 5.38 14 3 C16.64 3 19.28 3 22 3 C22 2.34 22 1.68 22 1 C15.4 1 8.8 1 2 1 C2 1.66 2 2.32 2 3 C4.01822917 2.90234375 6.03645833 2.8046875 8.0546875 2.70703125 C8.69664062 2.80371094 9.33859375 2.90039062 10 3 C10.99 4.485 10.99 4.485 12 6 C11.67 6.99 11.34 7.98 11 9 C10.64808594 8.03320312 10.64808594 8.03320312 10.2890625 7.046875 C9.18838927 4.7922092 9.18838927 4.7922092 6.8359375 4.390625 C6.02382812 4.34421875 5.21171875 4.2978125 4.375 4.25 C3.14910156 4.16492188 3.14910156 4.16492188 1.8984375 4.078125 C1.27195312 4.05234375 0.64546875 4.0265625 0 4 C0 2.68 0 1.36 0 0 Z " fill="#288350" transform="translate(126,265)"/>
<path d="M0 0 C1.12921875 -0.00515625 2.2584375 -0.0103125 3.421875 -0.015625 C6.25 0.25 6.25 0.25 8.25 2.25 C7.57453125 2.29898438 6.8990625 2.34796875 6.203125 2.3984375 C5.31109375 2.47320312 4.4190625 2.54796875 3.5 2.625 C2.17742187 2.72941406 2.17742187 2.72941406 0.828125 2.8359375 C-1.74066382 3.24850055 -3.50841015 3.96160957 -5.75 5.25 C-5.75 6.57 -5.75 7.89 -5.75 9.25 C-4.76 9.58 -3.77 9.91 -2.75 10.25 C-6.09252724 10.32427838 -8.5535914 10.31546953 -11.75 9.25 C-11.75 7.93 -11.75 6.61 -11.75 5.25 C-12.41 5.25 -13.07 5.25 -13.75 5.25 C-13.42 4.26 -13.09 3.27 -12.75 2.25 C-8.46450845 0.34815464 -4.65344815 -0.02144446 0 0 Z " fill="#BFDC32" transform="translate(137.75,252.75)"/>
<path d="M0 0 C0 0.66 0 1.32 0 2 C0.99 2.33 1.98 2.66 3 3 C3 4.98 3 6.96 3 9 C2.4225 8.195625 1.845 7.39125 1.25 6.5625 C-1.18453536 3.78983473 -1.58727512 3.62486512 -5 3 C-5.92296875 2.82339844 -6.8459375 2.64679688 -7.796875 2.46484375 C-9.25867188 2.20380859 -9.25867188 2.20380859 -10.75 1.9375 C-12.4825 1.628125 -14.215 1.31875 -16 1 C-16 7.6 -16 14.2 -16 21 C-13.03 21 -10.06 21 -7 21 C-7 21.33 -7 21.66 -7 22 C-10.63 22 -14.26 22 -18 22 C-18 14.74 -18 7.48 -18 0 C-3.6 -1.8 -3.6 -1.8 0 0 Z " fill="#7D95A8" transform="translate(349,217)"/>
<path d="M0 0 C3.37774562 0.61482561 5.47618303 1.85695846 8.1875 3.9375 C8.88230469 4.46214844 9.57710937 4.98679687 10.29296875 5.52734375 C12 7 12 7 13 9 C12.443125 8.814375 11.88625 8.62875 11.3125 8.4375 C8.600867 7.92448835 6.65628961 8.3359276 4 9 C4 10.65 4 12.3 4 14 C3.67 12.68 3.34 11.36 3 10 C-4.92 10 -12.84 10 -21 10 C-17.19107779 8.09553889 -15.65302151 7.72176738 -11.578125 7.5859375 C-10.04091797 7.52792969 -10.04091797 7.52792969 -8.47265625 7.46875 C-6.87744141 7.42234375 -6.87744141 7.42234375 -5.25 7.375 C-4.17105469 7.33632813 -3.09210938 7.29765625 -1.98046875 7.2578125 C0.67951775 7.16365369 3.3394994 7.07802613 6 7 C6 6.01 6 5.02 6 4 C5.01 4 4.02 4 3 4 C1.3125 2 1.3125 2 0 0 Z " fill="#ADDF55" transform="translate(147,255)"/>
<path d="M0 0 C0.66 0.33 1.32 0.66 2 1 C1.01 1.33 0.02 1.66 -1 2 C-1 2.66 -1 3.32 -1 4 C-0.01 4 0.98 4 2 4 C1.34 5.65 0.68 7.3 0 9 C-1.32 9 -2.64 9 -4 9 C-4.33 10.65 -4.66 12.3 -5 14 C-2.69 14 -0.38 14 2 14 C2.33 13.34 2.66 12.68 3 12 C3.66 12 4.32 12 5 12 C5 13.32 5 14.64 5 16 C-1.435 16.495 -1.435 16.495 -8 17 C-8.49940808 10.88225104 -7.24900602 7.97504047 -4 3 C-3.34 3 -2.68 3 -2 3 C-2 2.34 -2 1.68 -2 1 C-1.34 0.67 -0.68 0.34 0 0 Z " fill="#27516D" transform="translate(377,222)"/>
<path d="M0 0 C-1.52286393 3.73793875 -3.47509882 6.94863448 -7 9 C-11.20162237 9.74802617 -15.36543595 9.74517056 -19.625 9.75 C-21.888072 9.78313056 -24.15110034 9.81944037 -26.4140625 9.859375 C-27.4138916 9.86420898 -28.4137207 9.86904297 -29.44384766 9.87402344 C-32.12175367 9.89105872 -32.12175367 9.89105872 -35 11 C-35 10.34 -35 9.68 -35 9 C-34.34 9 -33.68 9 -33 9 C-33 8.34 -33 7.68 -33 7 C-24.75 7 -16.5 7 -8 7 C-7.67 5.35 -7.34 3.7 -7 2 C-4.54236535 0.67665827 -2.79402354 0 0 0 Z " fill="#529F9C" transform="translate(101,241)"/>
<path d="M0 0 C2 3 2 3 2 6 C1.01 6.66 0.02 7.32 -1 8 C-1.99 9.485 -1.99 9.485 -3 11 C-3 10.34 -3 9.68 -3 9 C-3.66 9 -4.32 9 -5 9 C-5.33 9.99 -5.66 10.98 -6 12 C-5.34 12.33 -4.68 12.66 -4 13 C-4.33 14.65 -4.66 16.3 -5 18 C-7.49121467 15.50878533 -7.54979927 14.0000091 -8.125 10.5625 C-8.29257812 9.59441406 -8.46015625 8.62632812 -8.6328125 7.62890625 C-9 5 -9 5 -9 2 C-8.34 2.33 -7.68 2.66 -7 3 C-6.5875 2.505 -6.175 2.01 -5.75 1.5 C-4 0 -4 0 0 0 Z " fill="#033351" transform="translate(436,249)"/>
<path d="M0 0 C5.875 0.875 5.875 0.875 7 2 C8.34747084 2.23075082 9.70377565 2.41153063 11.0625 2.5625 C12.361875 2.706875 13.66125 2.85125 15 3 C14.34 4.65 13.68 6.3 13 8 C11.25181409 8.22304441 9.50129677 8.4278645 7.75 8.625 C6.77546875 8.74101562 5.8009375 8.85703125 4.796875 8.9765625 C1.86570607 9.00112537 0.45471036 8.5312717 -2 7 C-0.68 6.34 0.64 5.68 2 5 C2 4.34 2 3.68 2 3 C1.34 2.67 0.68 2.34 0 2 C0 1.34 0 0.68 0 0 Z " fill="#037F7E" transform="translate(124,308)"/>
<path d="M0 0 C0.5775 0.226875 1.155 0.45375 1.75 0.6875 C2.08 2.0075 2.41 3.3275 2.75 4.6875 C4.4 5.0175 6.05 5.3475 7.75 5.6875 C7.75 6.0175 7.75 6.3475 7.75 6.6875 C6.97914063 6.80867187 6.20828125 6.92984375 5.4140625 7.0546875 C4.41117187 7.22226563 3.40828125 7.38984375 2.375 7.5625 C0.87839844 7.80613281 0.87839844 7.80613281 -0.6484375 8.0546875 C-3.3925115 8.4833802 -3.3925115 8.4833802 -5.25 10.6875 C-5.64764263 12.67571313 -5.98775349 14.67694339 -6.25 16.6875 C-4.93 17.3475 -3.61 18.0075 -2.25 18.6875 C-5.25 18.6875 -5.25 18.6875 -8.25 17.6875 C-7.5 10.0625 -7.5 10.0625 -5.25 6.6875 C-5.55840599 4.53475052 -5.55840599 4.53475052 -6.25 2.6875 C-2.80384615 -0.38942308 -2.80384615 -0.38942308 0 0 Z " fill="#184561" transform="translate(387.25,244.3125)"/>
<path d="M0 0 C0.33 0 0.66 0 1 0 C1.03758423 0.83978394 1.03758423 0.83978394 1.07592773 1.6965332 C1.19203745 4.23541305 1.3146958 6.77393553 1.4375 9.3125 C1.47681641 10.19357422 1.51613281 11.07464844 1.55664062 11.98242188 C1.59853516 12.82998047 1.64042969 13.67753906 1.68359375 14.55078125 C1.73858032 15.72120972 1.73858032 15.72120972 1.79467773 16.9152832 C1.94125263 19.19329101 1.94125263 19.19329101 3 22 C3.66 22 4.32 22 5 22 C5.061875 22.61875 5.12375 23.2375 5.1875 23.875 C5.828919 26.27761141 5.828919 26.27761141 8.5625 27.25 C9.366875 27.4975 10.17125 27.745 11 28 C10.67 29.32 10.34 30.64 10 32 C9.34 32 8.68 32 8 32 C0.75996766 23.35977272 -1.69883845 16.16516313 -1 5 C-0.69858579 3.3272662 -0.37473955 1.65784775 0 0 Z " fill="#A8DB54" transform="translate(110,272)"/>
<path d="M0 0 C1.65 1.32 3.3 2.64 5 4 C-2.11389522 11.66742597 -2.11389522 11.66742597 -7 13 C-7.25 10.1875 -7.25 10.1875 -7 7 C-5 5.125 -5 5.125 -3 4 C-2.34 4.33 -1.68 4.66 -1 5 C-1.33 3.68 -1.66 2.36 -2 1 C-1.34 0.67 -0.68 0.34 0 0 Z " fill="#278D87" transform="translate(161,301)"/>
<path d="M0 0 C7.34918685 0.17751659 13.51594367 2.2407215 18.9375 7.3125 C18.2775 8.6325 17.6175 9.9525 16.9375 11.3125 C16.6075 9.9925 16.2775 8.6725 15.9375 7.3125 C14.9475 7.6425 13.9575 7.9725 12.9375 8.3125 C12.6075 7.3225 12.2775 6.3325 11.9375 5.3125 C8.48948443 2.85202287 4.8135634 2.91672574 0.6875 2.6875 C-1.20742188 2.57535156 -1.20742188 2.57535156 -3.140625 2.4609375 C-4.10484375 2.41195312 -5.0690625 2.36296875 -6.0625 2.3125 C-3.71017727 -0.03982273 -3.19969668 0.01692961 0 0 Z " fill="#334F62" transform="translate(390.0625,218.6875)"/>
<path d="M0 0 C0.99 0.33 1.98 0.66 3 1 C2.071875 2.546875 2.071875 2.546875 1.125 4.125 C-1.88392986 10.03616008 -2.30464033 16.48557784 -3 23 C-3.33 23 -3.66 23 -4 23 C-4 17.39 -4 11.78 -4 6 C-4.99 6.33 -5.98 6.66 -7 7 C-6.67 5.68 -6.34 4.36 -6 3 C-4.35 3 -2.7 3 -1 3 C-0.67 2.01 -0.34 1.02 0 0 Z " fill="#1A8560" transform="translate(112,263)"/>
<path d="M0 0 C1.43088528 2.86177057 0.59991697 4.93375773 0 8 C-0.61875 8.103125 -1.2375 8.20625 -1.875 8.3125 C-4.36526484 8.87525373 -4.36526484 8.87525373 -6 12 C-8.3828125 12.29296875 -8.3828125 12.29296875 -11.125 12.1875 C-12.03507813 12.16042969 -12.94515625 12.13335937 -13.8828125 12.10546875 C-14.58148438 12.07066406 -15.28015625 12.03585937 -16 12 C-12.55167303 9.70111535 -8.97697824 7.68036561 -5.375 5.6328125 C-2.96863248 3.97843483 -1.59453824 2.42327851 0 0 Z " fill="#198461" transform="translate(160,298)"/>
<path d="M0 0 C0.66 1.32 1.32 2.64 2 4 C1.01 4.495 1.01 4.495 0 5 C-0.65555119 7.52733235 -0.65555119 7.52733235 -1 10 C-0.01 10 0.98 10 2 10 C2.33 11.65 2.66 13.3 3 15 C-1.32239956 11.65996398 -4.17477391 8.67248931 -7 4 C-6.030625 3.525625 -5.06125 3.05125 -4.0625 2.5625 C-1.19522563 1.29806053 -1.19522563 1.29806053 0 0 Z " fill="#A7D94E" transform="translate(141,283)"/>
<path d="M0 0 C13.86 0 27.72 0 42 0 C42 0.99 42 1.98 42 3 C40.30037109 2.76990234 40.30037109 2.76990234 38.56640625 2.53515625 C31.05397603 1.70044178 23.48771274 1.63519179 15.9375 1.4375 C14.38866234 1.39422008 12.83983406 1.35060308 11.29101562 1.30664062 C7.52744068 1.20053934 3.76376805 1.09900464 0 1 C0 0.67 0 0.34 0 0 Z " fill="#127C7A" transform="translate(120,177)"/>
<path d="M0 0 C0.99 0.33 1.98 0.66 3 1 C3.33 2.98 3.66 4.96 4 7 C3.01 7 2.02 7 1 7 C1 6.34 1 5.68 1 5 C0.34 5 -0.32 5 -1 5 C-1.33 4.01 -1.66 3.02 -2 2 C-1.34 1.34 -0.68 0.68 0 0 Z M-5 3 C-4.01 3.33 -3.02 3.66 -2 4 C-2.66 4 -3.32 4 -4 4 C-4 5.32 -4 6.64 -4 8 C-5.32 8.33 -6.64 8.66 -8 9 C-8 10.32 -8 11.64 -8 13 C-8.66 13 -9.32 13 -10 13 C-8.84414715 9.08788267 -7.64465038 6.1254959 -5 3 Z " fill="#BEDD36" transform="translate(121,259)"/>
<path d="M0 0 C2 0 2 0 4.5 2.1875 C6.8395003 4.81943784 7.95802858 6.6846364 9 10 C8.01 10.99 7.02 11.98 6 13 C5.22227595 10.66682784 4.57584432 8.38564077 4 6 C3.67 6.66 3.34 7.32 3 8 C2.34 8 1.68 8 1 8 C1 7.01 1 6.02 1 5 C-0.32 4.67 -1.64 4.34 -3 4 C-1.625 2 -1.625 2 0 0 Z " fill="#01817D" transform="translate(162,257)"/>
<path d="M0 0 C1.98 1.65 3.96 3.3 6 5 C5.84518205 7.70931419 5.51827919 9.46584039 3.59765625 11.4453125 C2.10228292 12.67679642 0.5537076 13.8429837 -1 15 C-1 13.02 -1 11.04 -1 9 C-0.01 9.495 -0.01 9.495 1 10 C0.835 9.236875 0.67 8.47375 0.5 7.6875 C0.01246353 5.06699147 0 2.6548679 0 0 Z " fill="#439592" transform="translate(113,216)"/>
<path d="M0 0 C0.66 1.32 1.32 2.64 2 4 C-1.6744306 8.00846975 -5.12079359 10.5603968 -10 13 C-10.99 13 -11.98 13 -13 13 C-13 12.34 -13 11.68 -13 11 C-10 9 -10 9 -6 9 C-6 7.68 -6 6.36 -6 5 C-4.35 5.33 -2.7 5.66 -1 6 C-1.20625 5.38125 -1.4125 4.7625 -1.625 4.125 C-1.74875 3.42375 -1.8725 2.7225 -2 2 C-1.34 1.34 -0.68 0.68 0 0 Z " fill="#ADDB4A" transform="translate(157,296)"/>
<path d="M0 0 C-0.85980469 -0.15984375 -1.71960938 -0.3196875 -2.60546875 -0.484375 C-11.61608516 -1.85307623 -19.55338982 -1.43590923 -28 2 C-28 0.68 -28 -0.64 -28 -2 C-24.9388722 -2.36676073 -21.87599915 -2.71615254 -18.8125 -3.0625 C-17.94818359 -3.16626953 -17.08386719 -3.27003906 -16.19335938 -3.37695312 C-9.72791216 -4.09533615 -5.18244682 -4.41467692 0 0 Z " fill="#268755" transform="translate(150,255)"/>
<path d="M0 0 C2.69461986 4.04192978 2.23200889 6.2051496 2 11 C1 12 1 12 -2.16015625 12.09765625 C-4.09181641 12.08025391 -4.09181641 12.08025391 -6.0625 12.0625 C-7.35285156 12.05347656 -8.64320313 12.04445313 -9.97265625 12.03515625 C-10.97167969 12.02355469 -11.97070312 12.01195312 -13 12 C-13.33 11.34 -13.66 10.68 -14 10 C-9.38 10 -4.76 10 0 10 C0 6.7 0 3.4 0 0 Z " fill="#5F808A" transform="translate(206,262)"/>
<path d="M0 0 C7.75 -0.125 7.75 -0.125 10 1 C10 1.66 10 2.32 10 3 C10.99 3.33 11.98 3.66 13 4 C13 5.98 13 7.96 13 10 C12.4225 9.195625 11.845 8.39125 11.25 7.5625 C8.89326193 4.8784372 8.34773751 4.50723296 5 4 C3.3255761 3.3530635 1.65697379 2.69040574 0 2 C0 1.34 0 0.68 0 0 Z " fill="#4F6A80" transform="translate(339,216)"/>
<path d="M0 0 C5.28 0 10.56 0 16 0 C16.66 1.32 17.32 2.64 18 4 C17.01 4.99 16.02 5.98 15 7 C15.33 5.68 15.66 4.36 16 3 C11.71 2.34 7.42 1.68 3 1 C3 2.98 3 4.96 3 7 C2.34 6.67 1.68 6.34 1 6 C0.67 4.02 0.34 2.04 0 0 Z " fill="#52677A" transform="translate(413,221)"/>
<path d="M0 0 C1.12921875 -0.00515625 2.2584375 -0.0103125 3.421875 -0.015625 C6.25 0.25 6.25 0.25 8.25 2.25 C2.97 2.25 -2.31 2.25 -7.75 2.25 C-8.08 3.24 -8.41 4.23 -8.75 5.25 C-10.4 4.92 -12.05 4.59 -13.75 4.25 C-12.75 2.25 -12.75 2.25 -10.109375 1.140625 C-6.5990583 0.2099829 -3.62488331 -0.01670453 0 0 Z " fill="#A7DC57" transform="translate(137.75,252.75)"/>
<path d="M0 0 C3.63 0 7.26 0 11 0 C10.67 1.32 10.34 2.64 10 4 C6.7 4.33 3.4 4.66 0 5 C0 3.35 0 1.7 0 0 Z " fill="#ABDC4D" transform="translate(126,278)"/>
<path d="M0 0 C0.33 1.32 0.66 2.64 1 4 C3.31 4 5.62 4 8 4 C8.33 3.34 8.66 2.68 9 2 C9.66 2 10.32 2 11 2 C11 3.32 11 4.64 11 6 C4.565 6.495 4.565 6.495 -2 7 C-1 1 -1 1 0 0 Z " fill="#2D4C60" transform="translate(371,232)"/>
<path d="M0 0 C4.62 0 9.24 0 14 0 C14 2.97 14 5.94 14 9 C12.4375 7.1875 12.4375 7.1875 11 5 C11.33 4.01 11.66 3.02 12 2 C11.34 2 10.68 2 10 2 C9.67 2.66 9.34 3.32 9 4 C9 3.34 9 2.68 9 2 C7.329375 2.061875 7.329375 2.061875 5.625 2.125 C2 2 2 2 0 0 Z " fill="#133951" transform="translate(192,205)"/>
<path d="M0 0 C1.65 0.33 3.3 0.66 5 1 C4.0919838 2.13199353 3.17316174 3.25532363 2.25 4.375 C1.73953125 5.00148437 1.2290625 5.62796875 0.703125 6.2734375 C-1.08199481 8.08312318 -2.67949644 9.00117455 -5 10 C-5.33 8.68 -5.66 7.36 -6 6 C-5.38125 5.938125 -4.7625 5.87625 -4.125 5.8125 C-1.72238859 5.171081 -1.72238859 5.171081 -0.75 2.4375 C-0.5025 1.633125 -0.255 0.82875 0 0 Z " fill="#308880" transform="translate(107,230)"/>
<path d="M0 0 C2.31 0.33 4.62 0.66 7 1 C7 1.66 7 2.32 7 3 C12.61 3.66 18.22 4.32 24 5 C24 5.33 24 5.66 24 6 C8.08212234 6.81514025 8.08212234 6.81514025 1 2 C0.67 1.34 0.34 0.68 0 0 Z " fill="#9BD455" transform="translate(120,304)"/>
<path d="M0 0 C0.99 0.33 1.98 0.66 3 1 C3 2.32 3 3.64 3 5 C0.49515403 7.41847197 -0.46013806 8 -4 8 C-4 6.02 -4 4.04 -4 2 C-2.68 2 -1.36 2 0 2 C0 1.34 0 0.68 0 0 Z " fill="#BBDE2C" transform="translate(155,262)"/>
<path d="M0 0 C1.03253906 0.01353516 1.03253906 0.01353516 2.0859375 0.02734375 C3.76577838 0.05067487 5.44543746 0.08653674 7.125 0.125 C7.125 0.455 7.125 0.785 7.125 1.125 C2.505 1.125 -2.115 1.125 -6.875 1.125 C-7.205 2.115 -7.535 3.105 -7.875 4.125 C-10.515 4.455 -13.155 4.785 -15.875 5.125 C-15.215 4.795 -14.555 4.465 -13.875 4.125 C-13.875 3.465 -13.875 2.805 -13.875 2.125 C-9.17038677 0.26367327 -4.9992304 -0.1259496 0 0 Z " fill="#597282" transform="translate(386.875,241.875)"/>
<path d="M0 0 C0.99 0 1.98 0 3 0 C2.67 0.99 2.34 1.98 2 3 C-2.91881418 5.31383471 -7.5683296 5.24192664 -12.875 5.125 C-14.050625 5.11146484 -14.050625 5.11146484 -15.25 5.09765625 C-17.16680055 5.07428063 -19.08344191 5.03841653 -21 5 C-21 4.67 -21 4.34 -21 4 C-16.38 3.67 -11.76 3.34 -7 3 C-7 2.67 -7 2.34 -7 2 C-3.535 1.505 -3.535 1.505 0 1 C0 0.67 0 0.34 0 0 Z " fill="#5DA69E" transform="translate(150,313)"/>
<path d="M0 0 C6.75 -0.125 6.75 -0.125 9 1 C8.67 1.99 8.34 2.98 8 4 C6.741875 4.04125 5.48375 4.0825 4.1875 4.125 C3.47980469 4.14820313 2.77210938 4.17140625 2.04296875 4.1953125 C0 4 0 4 -3 2 C-2.01 2 -1.02 2 0 2 C0 1.34 0 0.68 0 0 Z " fill="#466072" transform="translate(381,271)"/>
<path d="M0 0 C0.66 0 1.32 0 2 0 C2.33 0.99 2.66 1.98 3 3 C-3.27692308 7.06153846 -3.27692308 7.06153846 -6.9375 6.75 C-7.618125 6.5025 -8.29875 6.255 -9 6 C-7.875 4 -7.875 4 -6 2 C-2.8125 1.75 -2.8125 1.75 0 2 C0 1.34 0 0.68 0 0 Z " fill="#39586E" transform="translate(295,265)"/>
<path d="M0 0 C2.9375 0.375 2.9375 0.375 6 1 C6.33 1.66 6.66 2.32 7 3 C6.01 3 5.02 3 4 3 C4 4.32 4 5.64 4 7 C4.66 7.33 5.32 7.66 6 8 C3.39417629 8.93065133 2.35801776 9.14917407 -0.25 8.0625 C-0.8275 7.711875 -1.405 7.36125 -2 7 C-0.68 6.34 0.64 5.68 2 5 C2 4.34 2 3.68 2 3 C1.34 2.67 0.68 2.34 0 2 C0 1.34 0 0.68 0 0 Z " fill="#288F7C" transform="translate(124,308)"/>
<path d="M0 0 C0.33 0.66 0.66 1.32 1 2 C6.36891879 1.50130596 11.69235173 0.97772468 17 0 C16 2 16 2 13.5625 3.125 C8.98193562 4.2500509 4.69039798 4.1668521 0 4 C0 2.68 0 1.36 0 0 Z " fill="#72848F" transform="translate(420,288)"/>
<path d="M0 0 C-1.82945522 2.21460369 -2.67038832 2.94372483 -5.5625 3.4375 C-8.17317795 3.73987379 -8.17317795 3.73987379 -9.3125 6.0625 C-9.539375 6.701875 -9.76625 7.34125 -10 8 C-10.33 8 -10.66 8 -11 8 C-11.25 5.6875 -11.25 5.6875 -11 3 C-7.85004477 -0.65394807 -4.57703263 -0.26405958 0 0 Z " fill="#2B8681" transform="translate(60,177)"/>
<path d="M0 0 C0.66 0 1.32 0 2 0 C3.7041678 5.15946865 4.22225605 9.4425333 4.125 14.9375 C4.11597656 15.62134766 4.10695312 16.30519531 4.09765625 17.00976562 C4.07438958 18.67333287 4.03853167 20.33671631 4 22 C3.67 22 3.34 22 3 22 C3 17.38 3 12.76 3 8 C2.34 8 1.68 8 1 8 C0.34 5.69 -0.32 3.38 -1 1 C-0.67 0.67 -0.34 0.34 0 0 Z " fill="#75B7B7" transform="translate(170,267)"/>
<path d="M0 0 C3.48670834 1.1094072 6.77484237 2.26337666 10 4 C10 4.66 10 5.32 10 6 C10.66 6 11.32 6 12 6 C11.67 6.66 11.34 7.32 11 8 C10.34 8 9.68 8 9 8 C9 7.01 9 6.02 9 5 C6.69 5.33 4.38 5.66 2 6 C1.33333333 4 0.66666667 2 0 0 Z " fill="#486376" transform="translate(291,207)"/>
<path d="M0 0 C0.33 0 0.66 0 1 0 C1 6.93 1 13.86 1 21 C1.66 21 2.32 21 3 21 C3.33 22.65 3.66 24.3 4 26 C3.34 26 2.68 26 2 26 C0.11585358 22.80542649 -0.23819737 20.48497371 -0.1953125 16.796875 C-0.18886719 15.8171875 -0.18242188 14.8375 -0.17578125 13.828125 C-0.15902344 12.81234375 -0.14226563 11.7965625 -0.125 10.75 C-0.11597656 9.71875 -0.10695312 8.6875 -0.09765625 7.625 C-0.07412011 5.08309713 -0.04124023 2.5416672 0 0 Z " fill="#509B98" transform="translate(46,280)"/>
<path d="M0 0 C2.6486859 3.19668988 4.93992341 6.39486597 7 10 C5 9 3 8 1 7 C0.67 7.66 0.34 8.32 0 9 C-0.99 8.34 -1.98 7.68 -3 7 C-3 6.34 -3 5.68 -3 5 C-2.34 5 -1.68 5 -1 5 C-0.67 3.35 -0.34 1.7 0 0 Z " fill="#B0DA48" transform="translate(125,283)"/>
<path d="M0 0 C3.9341561 5.90123415 4.27522305 11.11942374 4 18 C3.67 18 3.34 18 3 18 C3 16.02 3 14.04 3 12 C2.34 12 1.68 12 1 12 C0.67 8.04 0.34 4.08 0 0 Z " fill="#97D054" transform="translate(162,267)"/>
<path d="M0 0 C0.99 0.66 1.98 1.32 3 2 C1.35 6.62 -0.3 11.24 -2 16 C-2.96805366 13.09583903 -3.05846827 11.92345144 -2.6875 9 C-2.60886719 8.319375 -2.53023438 7.63875 -2.44921875 6.9375 C-2 5 -2 5 0 2 C0 1.34 0 0.68 0 0 Z " fill="#5B748C" transform="translate(455,242)"/>
<path d="M0 0 C0.99 0.33 1.98 0.66 3 1 C3.99 0.67 4.98 0.34 6 0 C5.67 1.32 5.34 2.64 5 4 C4.34 4 3.68 4 3 4 C3 4.66 3 5.32 3 6 C1.35 5.67 -0.3 5.34 -2 5 C-1.125 1.125 -1.125 1.125 0 0 Z " fill="#30546C" transform="translate(356,241)"/>
<path d="M0 0 C0.99 0.33 1.98 0.66 3 1 C3 2.66666667 3 4.33333333 3 6 C0.69 6.33 -1.62 6.66 -4 7 C-3.67 5.35 -3.34 3.7 -3 2 C-2.01 2 -1.02 2 0 2 C0 1.34 0 0.68 0 0 Z " fill="#033452" transform="translate(452,225)"/>
<path d="M0 0 C0.99 0.33 1.98 0.66 3 1 C2.32902328 5.19360449 0.1441606 8.40334352 -2 12 C-2.625 10.1875 -2.625 10.1875 -3 8 C-2.34 7.01 -1.68 6.02 -1 5 C-0.61500109 3.34450469 -0.27206865 1.6777567 0 0 Z " fill="#57A29C" transform="translate(169,292)"/>
<path d="M0 0 C0.66 0.33 1.32 0.66 2 1 C0.625 3.5 0.625 3.5 -1 6 C-1.66 6 -2.32 6 -3 6 C-3.33 6.99 -3.66 7.98 -4 9 C-6.0625 9.6875 -6.0625 9.6875 -8 10 C-7.34 8.68 -6.68 7.36 -6 6 C-5.34 6 -4.68 6 -4 6 C-4 5.34 -4 4.68 -4 4 C-3.34 4 -2.68 4 -2 4 C-2 3.34 -2 2.68 -2 2 C-1.34 2 -0.68 2 0 2 C0 1.34 0 0.68 0 0 Z " fill="#62A29F" transform="translate(119,238)"/>
<path d="M0 0 C0.66 0 1.32 0 2 0 C4.03684712 4.07369424 4.0257259 6.58937864 3 11 C2.34 11 1.68 11 1 11 C0.67 7.37 0.34 3.74 0 0 Z " fill="#1D3C52" transform="translate(408,228)"/>
<path d="M0 0 C-1.49097658 3.7952131 -3.75700849 5.61042731 -7 8 C-7 6.02 -7 4.04 -7 2 C-2.25 0 -2.25 0 0 0 Z " fill="#398E8A" transform="translate(101,241)"/>
<path d="M0 0 C3 1 3 1 4 3 C4.0716735 5.55157655 4.09308442 8.07472971 4.0625 10.625 C4.05798828 11.33140625 4.05347656 12.0378125 4.04882812 12.765625 C4.03703875 14.51045275 4.01910324 16.255237 4 18 C3.67 18 3.34 18 3 18 C2.95101563 17.28714844 2.90203125 16.57429688 2.8515625 15.83984375 C2.41871477 10.29491509 1.75971184 5.27913551 0 0 Z " fill="#71899A" transform="translate(293,225)"/>
<path d="M0 0 C0.7734375 0.7115625 0.7734375 0.7115625 1.5625 1.4375 C4.66782675 3.42809407 7.36632504 3.65060818 11 4 C11 4.33 11 4.66 11 5 C5.06 5.495 5.06 5.495 -1 6 C-0.67 4.02 -0.34 2.04 0 0 Z " fill="#AEDB49" transform="translate(136,298)"/>
<path d="M0 0 C2.52845528 1.26422764 2.76422764 2.52845528 4 5 C4.66 5.33 5.32 5.66 6 6 C3.69 6 1.38 6 -1 6 C-1.042721 4.33388095 -1.04063832 2.66617115 -1 1 C-0.67 0.67 -0.34 0.34 0 0 Z " fill="#023456" transform="translate(373,230)"/>
<path d="M0 0 C2 2 2 2 2.125 4.625 C2.08375 5.40875 2.0425 6.1925 2 7 C2.66 7.33 3.32 7.66 4 8 C4 9.98 4 11.96 4 14 C3.01 14.495 3.01 14.495 2 15 C1.63597631 13.56496445 1.28413409 12.12683494 0.9375 10.6875 C0.74027344 9.88699219 0.54304688 9.08648437 0.33984375 8.26171875 C0 6 0 6 1 3 C0.34 3 -0.32 3 -1 3 C-0.67 2.01 -0.34 1.02 0 0 Z " fill="#5D7381" transform="translate(364,217)"/>
<path d="M0 0 C3.32310483 1.16757737 5.83361132 2.14948857 8 5 C8 5.99 8 6.98 8 8 C7.01 7.67 6.02 7.34 5 7 C5 6.34 5 5.68 5 5 C4.360625 4.731875 3.72125 4.46375 3.0625 4.1875 C1 3 1 3 0 0 Z " fill="#3F5F70" transform="translate(354,207)"/>
<path d="M0 0 C0.99 0.33 1.98 0.66 3 1 C3.33 4.3 3.66 7.6 4 11 C3.34 10.67 2.68 10.34 2 10 C1.3671875 7.71484375 1.3671875 7.71484375 0.875 4.9375 C0.70742188 4.01839844 0.53984375 3.09929687 0.3671875 2.15234375 C0.24601562 1.44207031 0.12484375 0.73179687 0 0 Z " fill="#556F83" transform="translate(425,253)"/>
<path d="M0 0 C0.66 0.99 1.32 1.98 2 3 C-2.625 7 -2.625 7 -6 7 C-6 6.34 -6 5.68 -6 5 C-5.34 5 -4.68 5 -4 5 C-4 4.34 -4 3.68 -4 3 C-3.34 3 -2.68 3 -2 3 C-2 2.34 -2 1.68 -2 1 C-1.34 0.67 -0.68 0.34 0 0 Z " fill="#529D97" transform="translate(108,250)"/>
<path d="M0 0 C0.33 0 0.66 0 1 0 C1.16873478 1.43725871 1.33490737 2.87481838 1.5 4.3125 C1.5928125 5.11300781 1.685625 5.91351563 1.78125 6.73828125 C2 9 2 9 2 12 C1.01 11.67 0.02 11.34 -1 11 C-0.67 7.37 -0.34 3.74 0 0 Z " fill="#3B576E" transform="translate(309,238)"/>
<path d="M0 0 C0.33 0 0.66 0 1 0 C1 1.65 1 3.3 1 5 C-0.32 5.33 -1.64 5.66 -3 6 C-3 7.32 -3 8.64 -3 10 C-3.66 10 -4.32 10 -5 10 C-3.85017555 6.10828647 -2.70784225 3.06103907 0 0 Z " fill="#A5D952" transform="translate(116,262)"/>
<path d="M0 0 C0.66 0 1.32 0 2 0 C3.09898702 3.29696105 2.87124444 4.40494903 2.0625 7.6875 C1.86785156 8.49574219 1.67320312 9.30398438 1.47265625 10.13671875 C1.23869141 11.05904297 1.23869141 11.05904297 1 12 C0.67 12 0.34 12 0 12 C0 8.04 0 4.08 0 0 Z " fill="#10334A" transform="translate(419,279)"/>
<path d="M0 0 C0.66 0.33 1.32 0.66 2 1 C1.34 3.31 0.68 5.62 0 8 C1.32 8.66 2.64 9.32 4 10 C1 10 1 10 -2 9 C-1.125 1.125 -1.125 1.125 0 0 Z " fill="#638799" transform="translate(381,253)"/>
<path d="M0 0 C0.66 0 1.32 0 2 0 C2 0.99 2 1.98 2 3 C-2.17737474 4.59138085 -5.53160785 5.21278058 -10 5 C-10 4.67 -10 4.34 -10 4 C-9.36191406 3.79503906 -8.72382813 3.59007812 -8.06640625 3.37890625 C-7.24011719 3.10949219 -6.41382813 2.84007812 -5.5625 2.5625 C-4.73878906 2.29566406 -3.91507812 2.02882813 -3.06640625 1.75390625 C-1.03780412 1.17844506 -1.03780412 1.17844506 0 0 Z " fill="#435C70" transform="translate(290,255)"/>
<path d="M0 0 C4.29 0 8.58 0 13 0 C13.33 0.66 13.66 1.32 14 2 C10.59598052 3.13732426 8.22543336 2.83989957 4.75 2.0625 C3.85796875 1.86785156 2.9659375 1.67320312 2.046875 1.47265625 C1.37140625 1.31667969 0.6959375 1.16070312 0 1 C0 0.67 0 0.34 0 0 Z " fill="#073350" transform="translate(385,221)"/>
<path d="M0 0 C0.99 0.66 1.98 1.32 3 2 C3 2.66 3 3.32 3 4 C3.99 4.33 4.98 4.66 6 5 C4 6 4 6 2.0625 5.5 C-0.17665424 4.76397597 -0.17665424 4.76397597 -3 6 C-3 5.34 -3 4.68 -3 4 C-2.34 3.67 -1.68 3.34 -1 3 C-0.67 2.01 -0.34 1.02 0 0 Z " fill="#138262" transform="translate(115,300)"/>
<path d="M0 0 C0.99 0 1.98 0 3 0 C4 3 4 3 4 6 C3.01 6 2.02 6 1 6 C0.34 4.35 -0.32 2.7 -1 1 C-0.67 0.67 -0.34 0.34 0 0 Z " fill="#0B8578" transform="translate(130,284)"/>
<path d="M0 0 C-6.27692308 3.2 -6.27692308 3.2 -9.9375 2.1875 C-10.618125 1.795625 -11.29875 1.40375 -12 1 C-12 0.67 -12 0.34 -12 0 C-10.37585622 -0.19477739 -8.75063577 -0.38059458 -7.125 -0.5625 C-6.22007812 -0.66691406 -5.31515625 -0.77132812 -4.3828125 -0.87890625 C-2 -1 -2 -1 0 0 Z " fill="#46607F" transform="translate(357,248)"/>
<path d="M0 0 C2 1 2 1 4 4 C2.02 4.66 0.04 5.32 -2 6 C-2 4.35 -2 2.7 -2 1 C-1.34 0.67 -0.68 0.34 0 0 Z " fill="#02385B" transform="translate(377,247)"/>
<path d="M0 0 C4.29 0 8.58 0 13 0 C13 0.99 13 1.98 13 3 C8.71 2.34 4.42 1.68 0 1 C0 0.67 0 0.34 0 0 Z " fill="#2A8581" transform="translate(149,177)"/>
<path d="M0 0 C1.32 1.32 2.64 2.64 4 4 C0.625 4.1875 0.625 4.1875 -3 4 C-3.66 3.01 -4.32 2.02 -5 1 C-2.525 1.495 -2.525 1.495 0 2 C0 1.34 0 0.68 0 0 Z " fill="#348651" transform="translate(143,298)"/>
<path d="M0 0 C2.0625 0.4375 2.0625 0.4375 4 1 C4 1.99 4 2.98 4 4 C2.68 4.33 1.36 4.66 0 5 C-0.5625 3.0625 -0.5625 3.0625 -1 1 C-0.67 0.67 -0.34 0.34 0 0 Z " fill="#013858" transform="translate(390,244)"/>
<path d="M0 0 C1.32 0.33 2.64 0.66 4 1 C3.01 2.98 2.02 4.96 1 7 C-0.5 5.625 -0.5 5.625 -2 4 C-2 3.34 -2 2.68 -2 2 C-1.34 2 -0.68 2 0 2 C0 1.34 0 0.68 0 0 Z " fill="#01375A" transform="translate(301,233)"/>
<path d="M0 0 C1 3 1 3 -0.4375 6.1875 C-1.2109375 7.5796875 -1.2109375 7.5796875 -2 9 C-2.66 8.01 -3.32 7.02 -4 6 C-2.68 4.02 -1.36 2.04 0 0 Z " fill="#61798B" transform="translate(449,264)"/>
<path d="M0 0 C3 2 3 2 3.875 3.9375 C4 6 4 6 2.5625 7.75 C1.7890625 8.36875 1.7890625 8.36875 1 9 C-0.06546953 5.8035914 -0.07427838 3.34252724 0 0 Z " fill="#2C8B84" transform="translate(167,261)"/>
<path d="M0 0 C0.33 0 0.66 0 1 0 C1.3125 2.1875 1.3125 2.1875 1 5 C-1.5 7.8125 -1.5 7.8125 -4 10 C-3.29445932 6.33118845 -1.72264494 3.29549466 0 0 Z " fill="#657A8B" transform="translate(373,225)"/>
<path d="M0 0 C0.99 0.33 1.98 0.66 3 1 C2.34 2.65 1.68 4.3 1 6 C-0.5 4.625 -0.5 4.625 -2 3 C-2 2.34 -2 1.68 -2 1 C-1.34 0.67 -0.68 0.34 0 0 Z " fill="#093451" transform="translate(450,253)"/>
<path d="M0 0 C1.32 0.66 2.64 1.32 4 2 C3.01 4.31 2.02 6.62 1 9 C0.67 9 0.34 9 0 9 C-1.125 2.25 -1.125 2.25 0 0 Z " fill="#4F6B80" transform="translate(460,227)"/>
</svg>
